<svg width="22" height="25" viewBox="0 0 22 25" fill="none" xmlns="http://www.w3.org/2000/svg">
<path d="M17.9693 2.20855C17.6986 2.10227 17.4302 1.9969 17.1644 1.89255C17.0152 1.83836 16.8675 1.78469 16.7212 1.73157C16.4273 1.6293 16.1395 1.52911 15.8585 1.4313C14.7307 1.05059 13.6977 0.749534 12.8119 0.540475C11.0403 0.122377 9.85746 0.07239 9.68342 0.489568C9.50939 0.906767 10.3771 1.71216 11.9206 2.67705C12.5754 3.08639 13.3576 3.52512 14.2278 3.97441C12.8173 4.1585 11.154 4.59679 9.43314 5.44199C8.55465 5.87925 7.67497 6.43419 6.81805 7.09009C5.98225 7.7706 5.16069 8.54104 4.44363 9.43467C2.99025 11.2112 2.06507 13.2063 1.50188 15.0422C0.949439 16.8881 0.707981 18.5905 0.686274 20.0075C0.64483 20.7156 0.690611 21.3549 0.73004 21.9132C0.753281 22.1923 0.769753 22.4513 0.807539 22.689C0.847559 22.9267 0.889573 23.1432 0.933426 23.3375C1.10891 24.1148 1.31341 24.5344 1.5394 24.5342C1.76537 24.5339 1.99187 24.1164 2.2071 23.3798C2.26088 23.1956 2.31396 22.9914 2.36607 22.7686C2.42451 22.5468 2.48771 22.3069 2.55544 22.0498C2.68721 21.5366 2.79961 20.9514 2.97978 20.3225C3.27957 19.0524 3.72647 17.5842 4.34554 16.0491C4.97664 14.5205 5.81474 12.9279 6.98326 11.5009C7.55979 10.7804 8.20395 10.1537 8.85012 9.57169C9.51793 9.01443 10.1978 8.51296 10.8876 8.08487C12.2718 7.23724 13.6524 6.64069 14.8568 6.21435C14.8978 6.19979 14.9367 6.18669 14.9773 6.17245C14.2582 7.03883 13.6362 7.85102 13.144 8.56678C12.1126 10.0667 11.6375 11.151 11.9633 11.4644C12.2892 11.7777 13.3541 11.2607 14.8126 10.1715C15.5418 9.62689 16.3694 8.93923 17.2522 8.14082C17.471 7.93916 17.6951 7.73262 17.9239 7.52172C18.0369 7.41476 18.151 7.30668 18.2663 7.19755C18.4685 6.99601 18.6726 6.79255 18.8785 6.58731C19.7843 5.6769 20.7309 4.70907 21.6809 3.72123C20.4172 3.19333 19.1626 2.68285 17.9693 2.20855Z" fill="black"/>
</svg>
