<svg width="56" height="55" viewBox="0 0 56 55" fill="none" xmlns="http://www.w3.org/2000/svg">
<circle cx="27.9849" cy="27.0989" r="26.0924" stroke="#E5E5E5" stroke-width="2"/>
<path d="M35.7576 19.0684L35.4335 18.8017C35.0962 18.5242 34.6749 18.3558 34.2159 18.3558H20.5448C20.0584 18.3558 19.6154 18.5429 19.2677 18.8498L18.9435 19.136L18.6135 18.8564C18.1297 18.4462 17.8118 17.8352 17.8118 17.1417C17.8118 15.8997 18.8199 14.888 20.0631 14.8838L20.063 14.8838L20.0652 15.3838L20.0637 14.8838L35.7576 19.0684ZM35.7576 19.0684L36.0764 18.7953M35.7576 19.0684L36.0764 18.7953M36.0764 18.7953C36.6026 18.3446 36.9519 17.6753 36.9519 16.916C36.9519 15.5439 35.8355 14.4295 34.4654 14.4295C34.1768 14.4295 33.8943 14.4861 33.6089 14.5907L33.6085 14.5909L33.3813 14.6744L33.2459 14.475L33.2447 14.4733C32.6501 13.6053 31.5832 13.169 30.5391 13.3793L30.5375 13.3796L30.2976 13.4288L30.1926 13.2079L30.1924 13.2075C29.7516 12.2822 28.8444 11.7007 27.8228 11.7007C26.9457 11.7007 26.1303 12.1376 25.6401 12.8637L25.6401 12.8638M36.0764 18.7953L25.6401 12.8638M25.6401 12.8638L25.4673 13.1197L25.6401 12.8638ZM36.1538 23.3477V23.9489L36.745 23.8393C36.9828 23.7952 37.2223 23.7705 37.4675 23.7705H38.82C41.0067 23.7705 42.7875 25.5521 42.7875 27.7408V30.4459C42.7875 32.6331 41.0068 34.4148 38.82 34.4148H37.4675C37.224 34.4148 36.9847 34.3889 36.745 34.3445L36.1538 34.2349V34.8361V38.5686C36.1538 39.6374 35.2837 40.5065 34.2159 40.5065H20.5448C19.4776 40.5065 18.6084 39.6365 18.6084 38.5686V20.2937C18.6084 20.2106 18.6202 20.1289 18.6386 20.0017L18.6403 19.9896L18.6845 19.684L18.4311 19.5077C17.6791 18.9843 17.1875 18.12 17.1875 17.1417C17.1875 15.739 18.1995 14.5619 19.5348 14.3088L19.804 14.2577L19.9058 14.0033C20.354 12.8836 21.5202 12.038 22.957 11.8935L22.9911 11.8901H23.0006L23.0214 11.8883C23.2605 11.8683 23.5035 11.8669 23.7567 11.887L23.7726 11.8883L23.7885 11.8885C23.9534 11.8911 24.1142 11.9049 24.2751 11.9301L24.501 11.9741C24.6641 12.0122 24.8259 12.0642 24.9852 12.1292L25.2913 12.2541L25.5261 12.0213C26.1312 11.4213 26.9523 11.0765 27.8213 11.0765C28.887 11.0765 29.8914 11.6161 30.495 12.4907L30.6534 12.72L30.9317 12.706C31.8696 12.6587 32.7881 13.0392 33.4334 13.7181L33.6229 13.9175L33.8928 13.8641C35.8149 13.4837 37.5762 15.0064 37.5762 16.916C37.5762 17.9352 37.0776 18.8367 36.3075 19.4062L36.0554 19.5927L36.1135 19.9009C36.139 20.036 36.1538 20.1659 36.1538 20.2937V23.3477ZM20.3194 14.8827L20.2399 15.2837L20.7304 15.3809L20.7281 14.8809L20.3194 14.8827ZM36.1538 32.3047V32.6309L36.4523 32.7623C36.7622 32.8988 37.1053 32.977 37.4675 32.977H38.82C40.2173 32.977 41.3511 31.8413 41.3511 30.4459V27.7408C41.3511 26.3435 40.2154 25.2098 38.82 25.2098H37.4675C37.1053 25.2098 36.7622 25.2879 36.4523 25.4244L36.1538 25.5559V25.882V32.3047ZM34.2159 39.8807C34.9425 39.8807 35.5281 39.2925 35.5281 38.5686V20.2937C35.5281 19.5698 34.9425 18.9816 34.2159 18.9816H20.5448C19.8203 18.9816 19.2326 19.5692 19.2326 20.2937V38.5686C19.2326 39.2931 19.8203 39.8807 20.5448 39.8807H34.2159Z" fill="#E5E5E5" stroke="#E5E5E5"/>
<path d="M21.0449 22.9582H33.7191V38.0685H21.0449V22.9582Z" fill="#E5E5E5" stroke="#E5E5E5"/>
</svg>
