<svg width="56" height="55" viewBox="0 0 56 55" fill="none" xmlns="http://www.w3.org/2000/svg">
<circle cx="27.9849" cy="27.373" r="26.0924" stroke="#FFA000" stroke-width="2"/>
<path d="M35.7576 19.3425L35.4335 19.0759C35.0962 18.7984 34.6749 18.63 34.2159 18.63H20.5448C20.0584 18.63 19.6154 18.817 19.2677 19.124L18.9435 19.4102L18.6135 19.1305C18.1297 18.7204 17.8118 18.1093 17.8118 17.4159C17.8118 16.1739 18.8199 15.1621 20.0631 15.158L20.063 15.158L20.0652 15.658L20.0637 15.158L35.7576 19.3425ZM35.7576 19.3425L36.0764 19.0695M35.7576 19.3425L36.0764 19.0695M36.0764 19.0695C36.6026 18.6188 36.9519 17.9494 36.9519 17.1902C36.9519 15.8181 35.8355 14.7037 34.4654 14.7037C34.1768 14.7037 33.8943 14.7603 33.6089 14.8649L33.6085 14.865L33.3813 14.9485L33.2459 14.7491L33.2447 14.7474C32.6501 13.8795 31.5832 13.4432 30.5391 13.6535L30.5375 13.6538L30.2976 13.7029L30.1926 13.4821L30.1924 13.4817C29.7516 12.5564 28.8444 11.9749 27.8228 11.9749C26.9457 11.9749 26.1303 12.4118 25.6401 13.1379L25.6401 13.1379M36.0764 19.0695L25.6401 13.1379M25.6401 13.1379L25.4673 13.3939L25.6401 13.1379ZM36.1538 23.6218V24.2231L36.745 24.1135C36.9828 24.0694 37.2223 24.0446 37.4675 24.0446H38.82C41.0067 24.0446 42.7875 25.8263 42.7875 28.015V30.7201C42.7875 32.9072 41.0068 34.689 38.82 34.689H37.4675C37.224 34.689 36.9847 34.6631 36.745 34.6187L36.1538 34.5091V35.1103V38.8428C36.1538 39.9115 35.2837 40.7806 34.2159 40.7806H20.5448C19.4776 40.7806 18.6084 39.9107 18.6084 38.8428V20.5679C18.6084 20.4848 18.6202 20.4031 18.6386 20.2759L18.6403 20.2638L18.6845 19.9582L18.4311 19.7818C17.6791 19.2585 17.1875 18.3941 17.1875 17.4159C17.1875 16.0131 18.1995 14.8361 19.5348 14.5829L19.804 14.5319L19.9058 14.2775C20.354 13.1577 21.5202 12.3121 22.957 12.1677L22.9911 12.1642H23.0006L23.0214 12.1625C23.2605 12.1424 23.5035 12.1411 23.7567 12.1612L23.7726 12.1624L23.7885 12.1627C23.9534 12.1652 24.1142 12.1791 24.2751 12.2042L24.501 12.2483C24.6641 12.2864 24.8259 12.3384 24.9852 12.4033L25.2913 12.5282L25.5261 12.2954C26.1312 11.6955 26.9523 11.3506 27.8213 11.3506C28.887 11.3506 29.8914 11.8903 30.495 12.7648L30.6534 12.9942L30.9317 12.9802C31.8696 12.9328 32.7881 13.3134 33.4334 13.9922L33.6229 14.1917L33.8928 14.1382C35.8149 13.7579 37.5762 15.2806 37.5762 17.1902C37.5762 18.2094 37.0776 19.1108 36.3075 19.6804L36.0554 19.8669L36.1135 20.1751C36.139 20.3102 36.1538 20.4401 36.1538 20.5679V23.6218ZM20.3194 15.1569L20.2399 15.5578L20.7304 15.655L20.7281 15.155L20.3194 15.1569ZM36.1538 32.5789V32.905L36.4523 33.0365C36.7622 33.173 37.1053 33.2511 37.4675 33.2511H38.82C40.2173 33.2511 41.3511 32.1155 41.3511 30.7201V28.015C41.3511 26.6177 40.2154 25.484 38.82 25.484H37.4675C37.1053 25.484 36.7622 25.5621 36.4523 25.6986L36.1538 25.8301V26.1562V32.5789ZM34.2159 40.1549C34.9425 40.1549 35.5281 39.5667 35.5281 38.8428V20.5679C35.5281 19.8439 34.9425 19.2557 34.2159 19.2557H20.5448C19.8203 19.2557 19.2326 19.8433 19.2326 20.5679V38.8428C19.2326 39.5673 19.8203 40.1549 20.5448 40.1549H34.2159Z" fill="#FFA000" stroke="#FFA000"/>
<path d="M21.0449 23.2324H33.7191V38.3427H21.0449V23.2324Z" fill="#FFA000" stroke="#FFA000"/>
</svg>
