<svg width="22" height="25" viewBox="0 0 22 25" fill="none" xmlns="http://www.w3.org/2000/svg">
<path d="M15.6681 7.09309L15.3439 6.8264C15.0813 6.61036 14.755 6.48043 14.4004 6.48043H3.16891C2.79302 6.48043 2.44969 6.6248 2.17882 6.86391L1.85456 7.15016L1.52462 6.87048C1.10859 6.51784 0.834407 5.99154 0.834407 5.39373C0.834407 4.32419 1.70244 3.45304 2.77302 3.44955L2.7727 3.44956L2.77493 3.94955L2.7734 3.44955L15.6681 7.09309ZM15.6681 7.09309L15.9869 6.82M15.6681 7.09309L15.9869 6.82M15.9869 6.82C16.4372 6.43421 16.7373 5.86026 16.7373 5.20833C16.7373 4.03177 15.7801 3.07631 14.6053 3.07631C14.3562 3.07631 14.1137 3.12522 13.8709 3.21418L13.8705 3.21433L13.7493 3.25888L13.6772 3.15273L13.6761 3.15104C13.1673 2.40837 12.2548 2.03544 11.3621 2.21525L11.3605 2.21557L11.2319 2.2419L11.1756 2.12357L11.1754 2.12323C10.7988 1.33251 10.0224 0.834407 9.14813 0.834407C8.39767 0.834407 7.70014 1.20829 7.28099 1.82919L7.28095 1.82926L15.9869 6.82ZM15.9032 10.4923V11.0935L16.4943 10.9839C16.685 10.9486 16.8763 10.9289 17.0716 10.9289H18.1828C19.9299 10.9289 21.353 12.3526 21.353 14.1015V16.3239C21.353 18.0716 19.93 19.4954 18.1828 19.4954H17.0716C16.878 19.4954 16.6869 19.4748 16.4943 19.4391L15.9032 19.3295V19.9307V22.9972C15.9032 23.8259 15.2283 24.5 14.4004 24.5H3.16891C2.34158 24.5 1.6673 23.8253 1.6673 22.9972V7.98326C1.6673 7.92152 1.67617 7.86021 1.69196 7.75102L1.69265 7.74621L1.73683 7.44064L1.48341 7.26427C0.88831 6.85012 0.5 6.16668 0.5 5.39373C0.5 4.28505 1.3 3.35411 2.35576 3.15397L2.62501 3.10292L2.72684 2.8485C3.08093 1.96377 4.00738 1.28665 5.15956 1.17079L5.18313 1.16842H5.19021L5.21105 1.16668C5.40269 1.15062 5.59749 1.14952 5.80061 1.16564L5.81649 1.1669L5.83241 1.16714C5.96317 1.16917 6.09055 1.18009 6.21814 1.19996L6.40041 1.23552C6.52913 1.26568 6.65706 1.30678 6.78321 1.35825L7.08934 1.48315L7.32413 1.25036C7.80472 0.773858 8.45677 0.5 9.14691 0.5C9.9924 0.5 10.7904 0.9284 11.2701 1.62332L11.4284 1.8527L11.7068 1.83865C12.4504 1.80111 13.18 2.10302 13.6928 2.64249L13.8823 2.84191L14.1522 2.7885C15.674 2.48737 17.0717 3.69348 17.0717 5.20833C17.0717 6.0156 16.677 6.73024 16.0656 7.1824L15.8135 7.3689L15.8716 7.67712C15.8918 7.78415 15.9032 7.8852 15.9032 7.98326V10.4923ZM2.91038 3.44894L2.83092 3.84991L3.32138 3.94711L3.31915 3.44712L2.91038 3.44894ZM15.9032 17.851V18.1772L16.2016 18.3086C16.467 18.4255 16.7611 18.4925 17.0716 18.4925H18.1828C19.3801 18.4925 20.3514 17.5195 20.3514 16.3239V14.1015C20.3514 12.9042 19.3784 11.9329 18.1828 11.9329H17.0716C16.7611 11.9329 16.467 11.9999 16.2016 12.1168L15.9032 12.2483V12.5744V17.851ZM14.4004 24.1644C15.0467 24.1644 15.5676 23.6411 15.5676 22.9972V7.98326C15.5676 7.33935 15.0467 6.81606 14.4004 6.81606H3.16891C2.5244 6.81606 2.00171 7.33876 2.00171 7.98326V22.9972C2.00171 23.6417 2.52441 24.1644 3.16891 24.1644H14.4004ZM7.32582 2.65662L7.60168 2.2396L7.18849 1.96627L6.91136 2.37693L7.32582 2.65662Z" fill="#E4E4E4" stroke="#E4E4E4"/>
<path d="M3.66992 22.4967V10.2612H13.9038V22.4967H3.66992Z" fill="#E4E4E4" stroke="white"/>
</svg>
