<svg width="28" height="32" viewBox="0 0 28 32" fill="none" xmlns="http://www.w3.org/2000/svg">
<mask id="path-1-inside-1" fill="white">
<path fill-rule="evenodd" clip-rule="evenodd" d="M21.4675 13.2705H22.82C25.2831 13.2705 27.2875 15.2763 27.2875 17.7408V20.4459C27.2875 22.909 25.2831 24.9148 22.82 24.9148H21.4675C21.1883 24.9148 20.9181 24.8851 20.6538 24.8361V28.5686C20.6538 29.9137 19.5596 31.0064 18.2159 31.0064H4.54477C3.20111 31.0064 2.10836 29.9122 2.10836 28.5686V10.2937C2.10836 10.1734 2.12511 10.0582 2.1418 9.94341C2.14303 9.93496 2.14426 9.9265 2.14548 9.91805C1.26654 9.30636 0.6875 8.29233 0.6875 7.1417C0.6875 5.49371 1.87527 4.11444 3.44163 3.8175C3.9687 2.50059 5.31236 1.55634 6.90694 1.39599V1.39005H6.97969C7.24545 1.36778 7.51567 1.3663 7.79627 1.38857C7.9878 1.39154 8.17487 1.40787 8.36195 1.43756L8.60544 1.48507C8.79845 1.52961 8.98849 1.59048 9.17408 1.6662C9.87189 0.974341 10.8191 0.576447 11.8213 0.576447C13.0551 0.576447 14.2117 1.20001 14.9065 2.20663C15.9948 2.15169 17.0534 2.59264 17.7958 3.37358C20.0392 2.92966 22.0762 4.70386 22.0762 6.91603C22.0762 8.10377 21.4942 9.15047 20.6048 9.80819C20.6345 9.96556 20.6538 10.1274 20.6538 10.2937V13.3477C20.9181 13.2987 21.1883 13.2705 21.4675 13.2705ZM18.2159 29.3807C18.6658 29.3807 19.0281 29.017 19.0281 28.5686V10.2937C19.0281 9.8453 18.6658 9.48156 18.2159 9.48156H4.54477C4.09639 9.48156 3.73263 9.8453 3.73263 10.2937V28.5686C3.73263 29.017 4.09639 29.3807 4.54477 29.3807H18.2159ZM18.2159 7.85583C18.8009 7.85583 19.3324 8.07111 19.7511 8.41556C20.1758 8.05181 20.4519 7.51733 20.4519 6.91603C20.4519 5.82034 19.5596 4.92953 18.4654 4.92953C18.2442 4.92953 18.02 4.97258 17.7809 5.06018L17.187 5.27843L16.8322 4.75582C16.3512 4.05357 15.4856 3.69873 14.6378 3.86947L14.0142 3.99715L13.741 3.42258C13.3817 2.66836 12.6483 2.20069 11.8228 2.20069C11.1131 2.20069 10.4524 2.55404 10.0545 3.14346L9.60465 3.81008L8.93356 3.36616C8.62474 3.16276 8.27435 3.04398 7.9106 3.01874H7.01532C5.80231 3.15979 5.01096 3.96597 4.85952 4.7291L4.73036 5.38087L4.06521 5.38384C3.09718 5.38681 2.31177 6.17517 2.31177 7.1417C2.31177 7.67767 2.55675 8.15277 2.93683 8.47494C3.3674 8.09487 3.92564 7.85583 4.54477 7.85583H18.2159ZM22.82 22.477C23.941 22.477 24.8511 21.5654 24.8511 20.4459V17.7408C24.8511 16.6199 23.9395 15.7098 22.82 15.7098H21.4675C21.1779 15.7098 20.9033 15.7721 20.6538 15.882V22.3047C20.9033 22.4146 21.1779 22.477 21.4675 22.477H22.82ZM4.54492 12.4582H18.2191V28.5685H4.54492V12.4582Z"/>
</mask>
<path fill-rule="evenodd" clip-rule="evenodd" d="M21.4675 13.2705H22.82C25.2831 13.2705 27.2875 15.2763 27.2875 17.7408V20.4459C27.2875 22.909 25.2831 24.9148 22.82 24.9148H21.4675C21.1883 24.9148 20.9181 24.8851 20.6538 24.8361V28.5686C20.6538 29.9137 19.5596 31.0064 18.2159 31.0064H4.54477C3.20111 31.0064 2.10836 29.9122 2.10836 28.5686V10.2937C2.10836 10.1734 2.12511 10.0582 2.1418 9.94341C2.14303 9.93496 2.14426 9.9265 2.14548 9.91805C1.26654 9.30636 0.6875 8.29233 0.6875 7.1417C0.6875 5.49371 1.87527 4.11444 3.44163 3.8175C3.9687 2.50059 5.31236 1.55634 6.90694 1.39599V1.39005H6.97969C7.24545 1.36778 7.51567 1.3663 7.79627 1.38857C7.9878 1.39154 8.17487 1.40787 8.36195 1.43756L8.60544 1.48507C8.79845 1.52961 8.98849 1.59048 9.17408 1.6662C9.87189 0.974341 10.8191 0.576447 11.8213 0.576447C13.0551 0.576447 14.2117 1.20001 14.9065 2.20663C15.9948 2.15169 17.0534 2.59264 17.7958 3.37358C20.0392 2.92966 22.0762 4.70386 22.0762 6.91603C22.0762 8.10377 21.4942 9.15047 20.6048 9.80819C20.6345 9.96556 20.6538 10.1274 20.6538 10.2937V13.3477C20.9181 13.2987 21.1883 13.2705 21.4675 13.2705ZM18.2159 29.3807C18.6658 29.3807 19.0281 29.017 19.0281 28.5686V10.2937C19.0281 9.8453 18.6658 9.48156 18.2159 9.48156H4.54477C4.09639 9.48156 3.73263 9.8453 3.73263 10.2937V28.5686C3.73263 29.017 4.09639 29.3807 4.54477 29.3807H18.2159ZM18.2159 7.85583C18.8009 7.85583 19.3324 8.07111 19.7511 8.41556C20.1758 8.05181 20.4519 7.51733 20.4519 6.91603C20.4519 5.82034 19.5596 4.92953 18.4654 4.92953C18.2442 4.92953 18.02 4.97258 17.7809 5.06018L17.187 5.27843L16.8322 4.75582C16.3512 4.05357 15.4856 3.69873 14.6378 3.86947L14.0142 3.99715L13.741 3.42258C13.3817 2.66836 12.6483 2.20069 11.8228 2.20069C11.1131 2.20069 10.4524 2.55404 10.0545 3.14346L9.60465 3.81008L8.93356 3.36616C8.62474 3.16276 8.27435 3.04398 7.9106 3.01874H7.01532C5.80231 3.15979 5.01096 3.96597 4.85952 4.7291L4.73036 5.38087L4.06521 5.38384C3.09718 5.38681 2.31177 6.17517 2.31177 7.1417C2.31177 7.67767 2.55675 8.15277 2.93683 8.47494C3.3674 8.09487 3.92564 7.85583 4.54477 7.85583H18.2159ZM22.82 22.477C23.941 22.477 24.8511 21.5654 24.8511 20.4459V17.7408C24.8511 16.6199 23.9395 15.7098 22.82 15.7098H21.4675C21.1779 15.7098 20.9033 15.7721 20.6538 15.882V22.3047C20.9033 22.4146 21.1779 22.477 21.4675 22.477H22.82ZM4.54492 12.4582H18.2191V28.5685H4.54492V12.4582Z" fill="#E5E5E5"/>
<path d="M20.6538 24.8361L20.8361 23.8529L19.6538 23.6337V24.8361H20.6538ZM2.1418 9.94341L3.1314 10.0873L3.1314 10.0873L2.1418 9.94341ZM2.14548 9.91805L3.13519 10.0611L3.22355 9.44999L2.7167 9.09726L2.14548 9.91805ZM3.44163 3.8175L3.62788 4.8L4.16638 4.69792L4.37003 4.18908L3.44163 3.8175ZM6.90694 1.39599L7.00699 2.39097L7.90694 2.30048V1.39599H6.90694ZM6.90694 1.39005V0.390051H5.90694V1.39005H6.90694ZM6.97969 1.39005V2.39005H7.02151L7.06319 2.38656L6.97969 1.39005ZM7.79627 1.38857L7.71716 2.38543L7.74892 2.38795L7.78077 2.38845L7.79627 1.38857ZM8.36195 1.43756L8.55345 0.45607L8.53614 0.452691L8.51871 0.449925L8.36195 1.43756ZM8.60544 1.48507L8.8303 0.510679L8.81368 0.506845L8.79695 0.503579L8.60544 1.48507ZM9.17408 1.6662L8.79632 2.5921L9.40858 2.8419L9.87815 2.37633L9.17408 1.6662ZM14.9065 2.20663L14.0836 2.77471L14.4002 3.23346L14.9569 3.20535L14.9065 2.20663ZM17.7958 3.37358L17.071 4.06256L17.4501 4.46138L17.9899 4.35456L17.7958 3.37358ZM20.6048 9.80819L20.0102 9.00417L19.5059 9.37718L19.6222 9.99361L20.6048 9.80819ZM20.6538 13.3477H19.6538V14.5501L20.8361 14.3309L20.6538 13.3477ZM19.7511 8.41556L19.1158 9.18781L19.7641 9.72116L20.4017 9.17501L19.7511 8.41556ZM17.7809 5.06018L17.4368 4.12124L17.436 4.12155L17.7809 5.06018ZM17.187 5.27843L16.3597 5.84017L16.7986 6.48656L17.532 6.21705L17.187 5.27843ZM16.8322 4.75582L17.6595 4.19408L17.6572 4.19069L16.8322 4.75582ZM14.6378 3.86947L14.4404 2.88915L14.4372 2.88979L14.6378 3.86947ZM14.0142 3.99715L13.1111 4.42655L13.4475 5.13395L14.2148 4.97682L14.0142 3.99715ZM13.741 3.42258L14.6442 2.99318L14.6438 2.9925L13.741 3.42258ZM10.0545 3.14346L9.22569 2.58394L9.2256 2.58407L10.0545 3.14346ZM9.60465 3.81008L9.05294 4.64412L9.87931 5.19076L10.4336 4.36946L9.60465 3.81008ZM8.93356 3.36616L9.48527 2.53212L9.48361 2.53103L8.93356 3.36616ZM7.9106 3.01874L7.97982 2.02114L7.94525 2.01874H7.9106V3.01874ZM7.01532 3.01874V2.01874H6.95738L6.89982 2.02544L7.01532 3.01874ZM4.85952 4.7291L3.87865 4.53445L3.8786 4.5347L4.85952 4.7291ZM4.73036 5.38087L4.73482 6.38086L5.55235 6.37721L5.71128 5.57527L4.73036 5.38087ZM4.06521 5.38384L4.06827 6.38384L4.06967 6.38383L4.06521 5.38384ZM2.93683 8.47494L2.29023 9.23777L2.9501 9.79711L3.59862 9.22464L2.93683 8.47494ZM20.6538 15.882L20.2507 14.9669L19.6538 15.2298V15.882H20.6538ZM20.6538 22.3047H19.6538V22.957L20.2507 23.2199L20.6538 22.3047ZM18.2191 12.4582H19.2191V11.4582H18.2191V12.4582ZM4.54492 12.4582V11.4582H3.54492V12.4582H4.54492ZM18.2191 28.5685V29.5685H19.2191V28.5685H18.2191ZM4.54492 28.5685H3.54492V29.5685H4.54492V28.5685ZM22.82 12.2705H21.4675V14.2705H22.82V12.2705ZM28.2875 17.7408C28.2875 14.7246 25.8361 12.2705 22.82 12.2705V14.2705C24.7302 14.2705 26.2875 15.8279 26.2875 17.7408H28.2875ZM28.2875 20.4459V17.7408H26.2875V20.4459H28.2875ZM22.82 25.9148C25.8358 25.9148 28.2875 23.4609 28.2875 20.4459H26.2875C26.2875 22.3571 24.7304 23.9148 22.82 23.9148V25.9148ZM21.4675 25.9148H22.82V23.9148H21.4675V25.9148ZM20.4715 25.8194C20.7849 25.8775 21.1169 25.9148 21.4675 25.9148V23.9148C21.2597 23.9148 21.0513 23.8928 20.8361 23.8529L20.4715 25.8194ZM21.6538 28.5686V24.8361H19.6538V28.5686H21.6538ZM18.2159 32.0064C20.1115 32.0064 21.6538 30.4664 21.6538 28.5686H19.6538C19.6538 29.361 19.0077 30.0064 18.2159 30.0064V32.0064ZM4.54477 32.0064H18.2159V30.0064H4.54477V32.0064ZM1.10836 28.5686C1.10836 30.4637 2.64805 32.0064 4.54477 32.0064V30.0064C3.75417 30.0064 3.10836 29.3607 3.10836 28.5686H1.10836ZM1.10836 10.2937V28.5686H3.10836V10.2937H1.10836ZM1.15221 9.79951C1.13701 9.90406 1.10836 10.0896 1.10836 10.2937H3.10836C3.10836 10.2571 3.11321 10.2124 3.1314 10.0873L1.15221 9.79951ZM1.15577 9.77496C1.15462 9.78295 1.15345 9.79101 1.15221 9.79952L3.1314 10.0873C3.13262 10.0789 3.1339 10.0701 3.13519 10.0611L1.15577 9.77496ZM-0.3125 7.1417C-0.3125 8.63705 0.441329 9.9504 1.57426 10.7388L2.7167 9.09726C2.09174 8.66232 1.6875 7.9476 1.6875 7.1417H-0.3125ZM3.25538 2.835C1.22688 3.21954 -0.3125 5.00322 -0.3125 7.1417H1.6875C1.6875 5.98419 2.52366 5.00933 3.62788 4.8L3.25538 2.835ZM6.80688 0.401008C4.89666 0.593094 3.19815 1.73463 2.51323 3.44593L4.37003 4.18908C4.73926 3.26656 5.72807 2.51958 7.00699 2.39097L6.80688 0.401008ZM5.90694 1.39005V1.39599H7.90694V1.39005H5.90694ZM6.97969 0.390051H6.90694V2.39005H6.97969V0.390051ZM7.87539 0.391701C7.53995 0.365079 7.21534 0.366799 6.89618 0.393544L7.06319 2.38656C7.27555 2.36876 7.49138 2.36751 7.71716 2.38543L7.87539 0.391701ZM8.51871 0.449925C8.28504 0.412835 8.05077 0.392392 7.81178 0.388687L7.78077 2.38845C7.92484 2.39068 8.06471 2.4029 8.20518 2.4252L8.51871 0.449925ZM8.79695 0.503579L8.55345 0.45607L8.17044 2.41905L8.41393 2.46656L8.79695 0.503579ZM9.55184 0.740299C9.31878 0.645211 9.07767 0.567764 8.8303 0.510679L8.38058 2.45946C8.51923 2.49146 8.65821 2.53576 8.79632 2.5921L9.55184 0.740299ZM11.8213 -0.423553C10.5527 -0.423553 9.35321 0.0804068 8.47001 0.956073L9.87815 2.37633C10.3906 1.86827 11.0855 1.57645 11.8213 1.57645V-0.423553ZM15.7295 1.63855C14.8523 0.367796 13.3913 -0.423553 11.8213 -0.423553V1.57645C12.7189 1.57645 13.571 2.03223 14.0836 2.77471L15.7295 1.63855ZM18.5206 2.68461C17.5841 1.69944 16.2453 1.13778 14.8561 1.2079L14.9569 3.20535C15.7444 3.16561 16.5228 3.48584 17.071 4.06256L18.5206 2.68461ZM23.0762 6.91603C23.0762 4.09869 20.4876 1.82154 17.6017 2.3926L17.9899 4.35456C19.5907 4.03779 21.0762 5.30903 21.0762 6.91603H23.0762ZM21.1994 10.6122C22.3273 9.7781 23.0762 8.44084 23.0762 6.91603H21.0762C21.0762 7.7667 20.6611 8.52284 20.0102 9.00417L21.1994 10.6122ZM21.6538 10.2937C21.6538 10.0503 21.6256 9.82467 21.5875 9.62277L19.6222 9.99361C19.6435 10.1065 19.6538 10.2045 19.6538 10.2937H21.6538ZM21.6538 13.3477V10.2937H19.6538V13.3477H21.6538ZM21.4675 12.2705C21.1203 12.2705 20.7888 12.3056 20.4715 12.3644L20.8361 14.3309C21.0475 14.2917 21.2564 14.2705 21.4675 14.2705V12.2705ZM18.0281 28.5686C18.0281 28.4659 18.1124 28.3807 18.2159 28.3807V30.3807C19.2193 30.3807 20.0281 29.5681 20.0281 28.5686H18.0281ZM18.0281 10.2937V28.5686H20.0281V10.2937H18.0281ZM18.2159 10.4816C18.1124 10.4816 18.0281 10.3964 18.0281 10.2937H20.0281C20.0281 9.29419 19.2193 8.48156 18.2159 8.48156V10.4816ZM4.54477 10.4816H18.2159V8.48156H4.54477V10.4816ZM4.73263 10.2937C4.73263 10.3976 4.64865 10.4816 4.54477 10.4816V8.48156C3.54412 8.48156 2.73263 9.293 2.73263 10.2937H4.73263ZM4.73263 28.5686V10.2937H2.73263V28.5686H4.73263ZM4.54477 28.3807C4.64865 28.3807 4.73263 28.4647 4.73263 28.5686H2.73263C2.73263 29.5693 3.54412 30.3807 4.54477 30.3807V28.3807ZM18.2159 28.3807H4.54477V30.3807H18.2159V28.3807ZM20.3864 7.6433C19.805 7.16498 19.0529 6.85583 18.2159 6.85583V8.85583C18.549 8.85583 18.8599 8.97724 19.1158 9.18781L20.3864 7.6433ZM19.4519 6.91603C19.4519 7.20147 19.3222 7.46628 19.1006 7.65611L20.4017 9.17501C21.0293 8.63734 21.4519 7.83318 21.4519 6.91603H19.4519ZM18.4654 5.92953C19.0078 5.92953 19.4519 6.37312 19.4519 6.91603H21.4519C21.4519 5.26755 20.1114 3.92953 18.4654 3.92953V5.92953ZM18.125 5.99912C18.2713 5.9455 18.3788 5.92953 18.4654 5.92953V3.92953C18.1095 3.92953 17.7686 3.99966 17.4368 4.12124L18.125 5.99912ZM17.532 6.21705L18.1259 5.9988L17.436 4.12155L16.8421 4.3398L17.532 6.21705ZM16.0049 5.31756L16.3597 5.84017L18.0144 4.71669L17.6595 4.19408L16.0049 5.31756ZM14.8352 4.84978C15.2904 4.75812 15.7532 4.95015 16.0072 5.32095L17.6572 4.19069C16.9491 3.15699 15.6808 2.63934 14.4404 2.88915L14.8352 4.84978ZM14.2148 4.97682L14.8384 4.84914L14.4372 2.88979L13.8136 3.01747L14.2148 4.97682ZM12.8379 3.85197L13.1111 4.42655L14.9173 3.56775L14.6442 2.99318L12.8379 3.85197ZM11.8228 3.20069C12.2561 3.20069 12.642 3.44061 12.8382 3.85266L14.6438 2.9925C14.1215 1.89611 13.0405 1.20069 11.8228 1.20069V3.20069ZM10.8833 3.70297C11.0967 3.38687 11.4479 3.20069 11.8228 3.20069V1.20069C10.7783 1.20069 9.8081 1.72121 9.22569 2.58394L10.8833 3.70297ZM10.4336 4.36946L10.8834 3.70284L9.2256 2.58407L8.77574 3.25069L10.4336 4.36946ZM8.38185 4.2002L9.05294 4.64412L10.1564 2.97604L9.48527 2.53212L8.38185 4.2002ZM7.84138 4.01635C8.03163 4.02955 8.21671 4.09143 8.38351 4.20129L9.48361 2.53103C9.03277 2.23408 8.51707 2.05842 7.97982 2.02114L7.84138 4.01635ZM7.01532 4.01874H7.9106V2.01874H7.01532V4.01874ZM5.8404 4.92375C5.89527 4.64722 6.28418 4.1105 7.13082 4.01205L6.89982 2.02544C5.32044 2.20908 4.12666 3.28472 3.87865 4.53445L5.8404 4.92375ZM5.71128 5.57527L5.84045 4.9235L3.8786 4.5347L3.74943 5.18647L5.71128 5.57527ZM4.06967 6.38383L4.73482 6.38086L4.72589 4.38088L4.06074 4.38385L4.06967 6.38383ZM3.31177 7.1417C3.31177 6.72642 3.65117 6.38511 4.06827 6.38384L4.06214 4.38384C2.54318 4.3885 1.31177 5.62393 1.31177 7.1417H3.31177ZM3.58343 7.71212C3.41088 7.56586 3.31177 7.36271 3.31177 7.1417H1.31177C1.31177 7.99263 1.70261 8.73968 2.29023 9.23777L3.58343 7.71212ZM4.54477 6.85583C3.66015 6.85583 2.87133 7.19889 2.27504 7.72525L3.59862 9.22464C3.86346 8.99085 4.19113 8.85583 4.54477 8.85583V6.85583ZM18.2159 6.85583H4.54477V8.85583H18.2159V6.85583ZM23.8511 20.4459C23.8511 21.0135 23.3882 21.477 22.82 21.477V23.477C24.4937 23.477 25.8511 22.1172 25.8511 20.4459H23.8511ZM23.8511 17.7408V20.4459H25.8511V17.7408H23.8511ZM22.82 16.7098C23.3877 16.7098 23.8511 17.1727 23.8511 17.7408H25.8511C25.8511 16.0671 24.4913 14.7098 22.82 14.7098V16.7098ZM21.4675 16.7098H22.82V14.7098H21.4675V16.7098ZM21.0569 16.7972C21.1855 16.7406 21.3233 16.7098 21.4675 16.7098V14.7098C21.0326 14.7098 20.6211 14.8037 20.2507 14.9669L21.0569 16.7972ZM21.6538 22.3047V15.882H19.6538V22.3047H21.6538ZM21.4675 21.477C21.3233 21.477 21.1855 21.4462 21.0569 21.3896L20.2507 23.2199C20.6211 23.383 21.0326 23.477 21.4675 23.477V21.477ZM22.82 21.477H21.4675V23.477H22.82V21.477ZM18.2191 11.4582H4.54492V13.4582H18.2191V11.4582ZM19.2191 28.5685V12.4582H17.2191V28.5685H19.2191ZM4.54492 29.5685H18.2191V27.5685H4.54492V29.5685ZM3.54492 12.4582V28.5685H5.54492V12.4582H3.54492Z" fill="#E5E5E5" mask="url(#path-1-inside-1)"/>
</svg>
