<svg width="22" height="25" viewBox="0 0 22 25" fill="none" xmlns="http://www.w3.org/2000/svg">
<path fill-rule="evenodd" clip-rule="evenodd" d="M17.0716 10.4289H18.1828C20.2064 10.4289 21.853 12.0767 21.853 14.1015V16.3239C21.853 18.3475 20.2064 19.9954 18.1828 19.9954H17.0716C16.8423 19.9954 16.6203 19.971 16.4032 19.9307V22.9972C16.4032 24.1023 15.5042 25 14.4004 25H3.16891C2.06504 25 1.1673 24.101 1.1673 22.9972V7.98326C1.1673 7.88443 1.18106 7.78982 1.19477 7.6955C1.19578 7.68856 1.19679 7.68161 1.19779 7.67467C0.475703 7.17213 0 6.33904 0 5.39373C0 4.03981 0.9758 2.90666 2.26264 2.66271C2.69565 1.5808 3.79952 0.805035 5.10953 0.673302V0.668423H5.1693C5.38764 0.650127 5.60963 0.648907 5.84016 0.667203C5.99751 0.669643 6.1512 0.68306 6.30489 0.707455L6.50493 0.746487C6.6635 0.78308 6.81962 0.833089 6.97209 0.895297C7.54537 0.326893 8.32357 0 9.14691 0C10.1605 0 11.1107 0.512295 11.6815 1.33929C12.5756 1.29416 13.4453 1.65642 14.0552 2.29801C15.8982 1.9333 17.5717 3.39091 17.5717 5.20833C17.5717 6.18413 17.0936 7.04406 16.3629 7.58441C16.3873 7.7137 16.4032 7.84665 16.4032 7.98326V10.4923C16.6203 10.452 16.8423 10.4289 17.0716 10.4289ZM14.4004 5.98043C14.881 5.98043 15.3176 6.1573 15.6616 6.44028C16.0104 6.14144 16.2373 5.70233 16.2373 5.20833C16.2373 4.30816 15.5042 3.57631 14.6053 3.57631C14.4235 3.57631 14.2394 3.61168 14.043 3.68365L13.5551 3.86295L13.2636 3.4336C12.8684 2.85665 12.1572 2.56513 11.4608 2.70541L10.9485 2.8103L10.724 2.33826C10.4289 1.71863 9.82631 1.33441 9.14813 1.33441C8.56509 1.33441 8.0223 1.62471 7.6954 2.10895L7.32582 2.65662L6.77449 2.29191C6.52078 2.1248 6.23292 2.02722 5.93408 2.00649H5.19858C4.20204 2.12237 3.55191 2.78469 3.4275 3.41164L3.32138 3.94711L2.77493 3.94955C1.97965 3.95199 1.33441 4.59968 1.33441 5.39373C1.33441 5.83406 1.53567 6.22439 1.84792 6.48907C2.20165 6.17682 2.66027 5.98043 3.16891 5.98043H14.4004ZM18.1828 17.9925C19.1037 17.9925 19.8514 17.2436 19.8514 16.3239V14.1015C19.8514 13.1806 19.1025 12.4329 18.1828 12.4329H17.0716C16.8338 12.4329 16.6081 12.4841 16.4032 12.5744V17.851C16.6081 17.9413 16.8338 17.9925 17.0716 17.9925H18.1828Z" fill="#E4E4E4"/>
</svg>
