<svg width="55" height="55" viewBox="0 0 55 55" fill="none" xmlns="http://www.w3.org/2000/svg">
<circle cx="27.4713" cy="27.3731" r="26.0924" stroke="#FFA000" stroke-width="2"/>
<path d="M42.4669 23.2777V24.6184C42.4459 24.7084 42.4219 24.8014 42.4069 24.8943C42.2182 26.3611 41.7411 27.776 41.0032 29.0575C40.3808 30.0778 39.6659 31.0387 38.8676 31.928C37.8437 33.102 36.7413 34.2053 35.5682 35.2304C34.4914 36.1662 33.3967 37.084 32.2689 37.9299C30.7692 39.0576 29.2095 40.1164 27.6797 41.2112C27.6293 41.2559 27.5642 41.2806 27.4968 41.2806C27.4294 41.2806 27.3643 41.2559 27.3138 41.2112C25.9671 40.2634 24.5843 39.3576 23.2736 38.3588C21.8939 37.306 20.5741 36.1932 19.2424 35.0594C17.5669 33.6341 16.0576 32.0242 14.7432 30.2603C13.7456 28.9274 13.0534 27.3914 12.7156 25.7612C12.6106 25.3773 12.5416 25.0263 12.4727 24.6604V23.2777C12.4907 23.1997 12.5056 23.1247 12.5236 23.0467C12.6556 22.4468 12.7396 21.8469 12.9286 21.247C13.5614 19.2622 14.9282 17.5938 16.7498 16.5829C18.4454 15.5929 20.4401 15.2448 22.3708 15.6021C24.2538 15.9131 25.9709 16.8671 27.2298 18.3016C27.2915 18.3862 27.3448 18.4766 27.3888 18.5716C27.7157 18.2446 27.9587 17.9927 28.2136 17.7557C29.772 16.2995 31.8231 15.4863 33.9559 15.4791C36.0887 15.4719 38.1453 16.2712 39.7134 17.7167C40.9324 18.8239 41.7939 20.2691 42.188 21.8679C42.32 22.3268 42.3799 22.8007 42.4669 23.2777Z" fill="#FFA000"/>
<path d="M30.0311 31.0747C30.2551 31.1494 30.4151 31.2667 30.5111 31.4267C30.6071 31.5761 30.6551 31.7734 30.6551 32.0187C30.6551 32.4987 30.5058 32.9094 30.2071 33.2507C29.9191 33.5921 29.5404 33.8481 29.0711 34.0187C28.6018 34.2001 28.1058 34.2907 27.5831 34.2907C25.2684 34.2907 23.9191 33.0321 23.5351 30.5147H22.3511C22.2871 30.3867 22.2551 30.2321 22.2551 30.0507C22.2551 29.6881 22.4791 29.5067 22.9271 29.5067H23.4551C23.4444 29.3894 23.4391 29.2187 23.4391 28.9947C23.4391 28.7174 23.4444 28.5094 23.4551 28.3707H22.3511C22.2871 28.2427 22.2551 28.0881 22.2551 27.9067C22.2551 27.5441 22.4791 27.3627 22.9271 27.3627H23.5831C23.7858 26.2107 24.2124 25.2614 24.8631 24.5147C25.5138 23.7574 26.4578 23.3787 27.6951 23.3787C28.5911 23.3787 29.3164 23.5334 29.8711 23.8427C30.4364 24.1521 30.7191 24.6481 30.7191 25.3307C30.7191 25.7147 30.6071 26.0294 30.3831 26.2747C30.1591 26.5094 29.8551 26.6267 29.4711 26.6267C29.0978 26.6267 28.8204 26.5414 28.6391 26.3707C28.7244 26.1361 28.7671 25.8694 28.7671 25.5707C28.7671 25.1867 28.6658 24.9147 28.4631 24.7547C28.2604 24.5841 27.9564 24.4987 27.5511 24.4987C26.3351 24.4987 25.6471 25.4534 25.4871 27.3627H28.8951C28.9591 27.4907 28.9911 27.6454 28.9911 27.8267C28.9911 28.1894 28.7671 28.3707 28.3191 28.3707H25.4391V28.8987C25.4391 29.1654 25.4444 29.3681 25.4551 29.5067H28.8951C28.9591 29.6347 28.9911 29.7894 28.9911 29.9707C28.9911 30.3334 28.7671 30.5147 28.3191 30.5147H25.5511C25.8178 32.0507 26.5538 32.8187 27.7591 32.8187C28.3564 32.8187 28.8311 32.6854 29.1831 32.4187C29.5351 32.1414 29.8178 31.6934 30.0311 31.0747Z" fill="white"/>
</svg>
