<svg width="30" height="25" viewBox="0 0 30 25" fill="none" xmlns="http://www.w3.org/2000/svg">
<path d="M29.047 7.56559V8.86399C29.0267 8.95113 29.0035 9.04118 28.9889 9.13122C28.8061 10.5516 28.3441 11.9218 27.6295 13.163C27.0268 14.151 26.3345 15.0815 25.5614 15.9428C24.5698 17.0797 23.5023 18.1482 22.3662 19.1408C21.3234 20.0471 20.2632 20.9359 19.171 21.7551C17.7187 22.8472 16.2082 23.8726 14.7268 24.9328C14.678 24.9761 14.6149 25 14.5497 25C14.4844 25 14.4213 24.9761 14.3725 24.9328C13.0683 24.0149 11.7292 23.1377 10.4598 22.1704C9.12367 21.1509 7.8456 20.0732 6.55592 18.9753C4.93333 17.595 3.47172 16.0359 2.19886 14.3277C1.23277 13.0369 0.562412 11.5494 0.235281 9.97068C0.133616 9.59888 0.0668082 9.25903 0 8.90466V7.56559C0.0174282 7.49007 0.0319517 7.41745 0.04938 7.34193C0.177187 6.76099 0.258519 6.18005 0.441515 5.59911C1.05433 3.6769 2.37801 2.06126 4.14211 1.08229C5.78411 0.123541 7.71585 -0.213536 9.58552 0.132454C11.4091 0.433645 13.072 1.35747 14.2911 2.74669C14.3509 2.82858 14.4025 2.91614 14.4451 3.00811C14.7617 2.6915 14.997 2.4475 15.2439 2.21803C16.753 0.807857 18.7394 0.020308 20.8048 0.0133048C22.8702 0.00630164 24.8619 0.780362 26.3805 2.18027C27.561 3.25247 28.3952 4.65202 28.7769 6.20038C28.9047 6.6448 28.9628 7.10374 29.047 7.56559Z" fill="#E4E4E4"/>
<path d="M15.7481 15.7164C15.0796 15.717 14.4239 15.5337 13.8526 15.1865C13.2813 14.8394 12.8165 14.3418 12.509 13.7481H15.7481V12.6235H12.1379C12.1098 12.4379 12.0929 12.2523 12.0929 12.0611C12.0929 11.8699 12.1098 11.6843 12.1379 11.4988H15.7481V10.3741H12.509C12.817 9.7809 13.2819 9.28367 13.8531 8.9366C14.4243 8.58954 15.0798 8.40595 15.7481 8.40587C16.6535 8.40587 17.4858 8.73765 18.1269 9.28875L19.1222 8.2934C18.1963 7.4597 16.9941 6.99888 15.7481 7C13.5438 7 11.6768 8.41149 10.9795 10.3741H9V11.4988H10.7208C10.6752 11.8723 10.6752 12.2499 10.7208 12.6235H9V13.7481H10.9795C11.6768 15.7107 13.5438 17.1222 15.7481 17.1222C17.0472 17.1222 18.2281 16.633 19.1222 15.8288L18.1212 14.8335C17.4858 15.3846 16.6591 15.7164 15.7481 15.7164Z" fill="white"/>
</svg>
