<svg width="55" height="55" viewBox="0 0 55 55" fill="none" xmlns="http://www.w3.org/2000/svg">
<circle cx="27.4713" cy="27.099" r="26.0924" stroke="#E5E5E5" stroke-width="2"/>
<path d="M42.4669 23.0035V24.3442C42.4459 24.4342 42.4219 24.5272 42.4069 24.6202C42.2182 26.0869 41.7411 27.5018 41.0032 28.7834C40.3808 29.8036 39.6659 30.7645 38.8676 31.6538C37.8437 32.8279 36.7413 33.9312 35.5682 34.9562C34.4914 35.892 33.3967 36.8098 32.2689 37.6557C30.7692 38.7835 29.2095 39.8423 27.6797 40.9371C27.6293 40.9818 27.5642 41.0064 27.4968 41.0064C27.4294 41.0064 27.3643 40.9818 27.3138 40.9371C25.9671 39.9892 24.5843 39.0834 23.2736 38.0846C21.8939 37.0318 20.5741 35.919 19.2424 34.7852C17.5669 33.3599 16.0576 31.75 14.7432 29.9861C13.7456 28.6533 13.0534 27.1173 12.7156 25.487C12.6106 25.1031 12.5416 24.7521 12.4727 24.3862V23.0035C12.4907 22.9255 12.5056 22.8505 12.5236 22.7725C12.6556 22.1726 12.7396 21.5728 12.9286 20.9729C13.5614 18.988 14.9282 17.3197 16.7498 16.3088C18.4454 15.3187 20.4401 14.9707 22.3708 15.328C24.2538 15.639 25.9709 16.5929 27.2298 18.0274C27.2915 18.112 27.3448 18.2024 27.3888 18.2974C27.7157 17.9704 27.9587 17.7185 28.2136 17.4815C29.772 16.0254 31.8231 15.2121 33.9559 15.2049C36.0887 15.1977 38.1453 15.997 39.7134 17.4425C40.9324 18.5497 41.7939 19.9949 42.188 21.5938C42.32 22.0527 42.3799 22.5266 42.4669 23.0035Z" fill="#E5E5E5"/>
<path d="M30.0311 30.8006C30.2551 30.8752 30.4151 30.9926 30.5111 31.1526C30.6071 31.3019 30.6551 31.4992 30.6551 31.7446C30.6551 32.2246 30.5058 32.6352 30.2071 32.9766C29.9191 33.3179 29.5404 33.5739 29.0711 33.7446C28.6018 33.9259 28.1058 34.0166 27.5831 34.0166C25.2684 34.0166 23.9191 32.7579 23.5351 30.2406H22.3511C22.2871 30.1126 22.2551 29.9579 22.2551 29.7766C22.2551 29.4139 22.4791 29.2326 22.9271 29.2326H23.4551C23.4444 29.1152 23.4391 28.9446 23.4391 28.7206C23.4391 28.4432 23.4444 28.2352 23.4551 28.0966H22.3511C22.2871 27.9686 22.2551 27.8139 22.2551 27.6326C22.2551 27.2699 22.4791 27.0886 22.9271 27.0886H23.5831C23.7858 25.9366 24.2124 24.9872 24.8631 24.2406C25.5138 23.4832 26.4578 23.1046 27.6951 23.1046C28.5911 23.1046 29.3164 23.2592 29.8711 23.5686C30.4364 23.8779 30.7191 24.3739 30.7191 25.0566C30.7191 25.4406 30.6071 25.7552 30.3831 26.0006C30.1591 26.2352 29.8551 26.3526 29.4711 26.3526C29.0978 26.3526 28.8204 26.2672 28.6391 26.0966C28.7244 25.8619 28.7671 25.5952 28.7671 25.2966C28.7671 24.9126 28.6658 24.6406 28.4631 24.4806C28.2604 24.3099 27.9564 24.2246 27.5511 24.2246C26.3351 24.2246 25.6471 25.1792 25.4871 27.0886H28.8951C28.9591 27.2166 28.9911 27.3712 28.9911 27.5526C28.9911 27.9152 28.7671 28.0966 28.3191 28.0966H25.4391V28.6246C25.4391 28.8912 25.4444 29.0939 25.4551 29.2326H28.8951C28.9591 29.3606 28.9911 29.5152 28.9911 29.6966C28.9911 30.0592 28.7671 30.2406 28.3191 30.2406H25.5511C25.8178 31.7766 26.5538 32.5446 27.7591 32.5446C28.3564 32.5446 28.8311 32.4112 29.1831 32.1446C29.5351 31.8672 29.8178 31.4192 30.0311 30.8006Z" fill="white"/>
</svg>
