<svg width="56" height="55" viewBox="0 0 56 55" fill="none" xmlns="http://www.w3.org/2000/svg">
<circle cx="28.0865" cy="27.3731" r="26.0924" stroke="#FFA000" stroke-width="2"/>
<path d="M41.9676 41.5906L40.0198 37.3884H40.6762C41.1627 37.3884 41.5737 37.0274 41.6366 36.5451L42.6052 29.1195C42.6743 28.5891 42.3008 28.1032 41.7703 28.0341C41.2389 27.9637 40.7536 28.3385 40.6846 28.8693L40.2042 32.5521C40.2 32.5521 40.1964 32.5508 40.1922 32.5508H34.3809C34.1145 32.5508 33.8966 32.7687 33.8966 33.035C33.8966 33.3014 34.1145 33.5193 34.3809 33.5193H36.8872L37.746 35.4513H33.8963C33.3613 35.4513 32.9277 35.8849 32.9277 36.4198C32.9277 36.9548 33.3613 37.3884 33.8963 37.3884H34.6385L32.9277 41.5906H34.3131L36.0239 37.3884H38.6064L40.5544 41.5906H41.9676ZM39.1588 35.4513L38.3 33.5193H40.0776L39.8254 35.4513H39.1588Z" fill="#FFA000"/>
<path d="M42.481 22.6921C40.3431 19.0636 35.1371 16.6564 29.0553 16.4239V15.4354C29.0553 14.9004 28.6217 14.4668 28.0867 14.4668C27.5518 14.4668 27.1182 14.9004 27.1182 15.4354V16.4239C21.0363 16.6564 15.8306 19.0636 13.6927 22.6921C13.5161 22.9914 13.5139 23.3623 13.6863 23.6642C13.8587 23.9661 14.1796 24.1523 14.527 24.1523H27.1182V29.6399H21.3068C20.7719 29.6399 20.3383 30.0734 20.3383 30.6084C20.3383 31.1434 20.7719 31.577 21.3068 31.577H27.1182V41.5905H29.0553V31.577H34.8666C35.4016 31.577 35.8351 31.1434 35.8351 30.6084C35.8351 30.0734 35.4016 29.6399 34.8666 29.6399H29.0553V24.1523H41.6465C41.9942 24.1523 42.3148 23.9661 42.4872 23.6642C42.6596 23.3623 42.6576 22.9914 42.481 22.6921Z" fill="#FFA000"/>
<path d="M21.5336 37.3882H22.2755C22.8104 37.3882 23.244 36.9546 23.244 36.4196C23.244 35.8847 22.8104 35.4511 22.2755 35.4511H20.3584C20.3571 35.4511 20.3558 35.4511 20.3545 35.4511H18.4264L19.2852 33.5191H21.7912C22.0576 33.5191 22.2755 33.3012 22.2755 33.0349C22.2755 32.7685 22.0576 32.5506 21.7912 32.5506H15.9799C15.9757 32.5506 15.9721 32.5519 15.9679 32.5519L15.4875 28.8691C15.4184 28.3384 14.9329 27.9632 14.4018 28.0339C13.8713 28.103 13.4975 28.5892 13.5669 29.1193L14.5354 36.5449C14.5984 37.0272 15.0094 37.3882 15.4959 37.3882H16.1523L14.2042 41.5904H15.6173L17.5654 37.3882H20.1479L21.8658 41.5904H23.2511L21.5336 37.3882ZM17.0133 35.4511H16.3466L16.0945 33.5191H17.8721L17.0133 35.4511Z" fill="#FFA000"/>
</svg>
