<svg width="27" height="25" viewBox="0 0 27 25" fill="none" xmlns="http://www.w3.org/2000/svg">
<path d="M26.1836 25L24.3883 21.1268H24.9933C25.4417 21.1268 25.8205 20.7941 25.8786 20.3496L26.7713 13.5054C26.835 13.0165 26.4907 12.5686 26.0018 12.505C25.512 12.4401 25.0647 12.7856 25.001 13.2748L24.5582 16.6692C24.5544 16.6692 24.5511 16.668 24.5472 16.668H19.1909C18.9454 16.668 18.7446 16.8689 18.7446 17.1143C18.7446 17.3598 18.9454 17.5607 19.1909 17.5607H21.501L22.2925 19.3414H18.7443C18.2512 19.3414 17.8516 19.741 17.8516 20.2341C17.8516 20.7272 18.2512 21.1268 18.7443 21.1268H19.4284L17.8516 25H19.1284L20.7053 21.1268H23.0856L24.8811 25H26.1836ZM23.5947 19.3414L22.8032 17.5607H24.4416L24.2092 19.3414H23.5947Z" fill="#E4E4E4"/>
<path d="M26.6578 7.58124C24.6873 4.23683 19.8889 2.01813 14.2833 1.80388V0.892716C14.2833 0.399639 13.8836 0 13.3906 0C12.8975 0 12.4979 0.399639 12.4979 0.892716V1.80388C6.8922 2.01813 2.09414 4.23683 0.123623 7.58124C-0.0391491 7.85709 -0.0412321 8.199 0.117671 8.47723C0.276575 8.75546 0.572361 8.92716 0.892549 8.92716H12.4979V13.985H7.14156C6.64848 13.985 6.24884 14.3846 6.24884 14.8777C6.24884 15.3708 6.64848 15.7704 7.14156 15.7704H12.4979V24.9999H14.2833V15.7704H19.6396C20.1327 15.7704 20.5323 15.3708 20.5323 14.8777C20.5323 14.3846 20.1327 13.985 19.6396 13.985H14.2833V8.92716H25.8886C26.2091 8.92716 26.5046 8.75546 26.6635 8.47723C26.8224 8.199 26.8206 7.85709 26.6578 7.58124Z" fill="#E4E4E4"/>
<path d="M7.35053 21.1266H8.03435C8.52743 21.1266 8.92707 20.727 8.92707 20.2339C8.92707 19.7408 8.52743 19.3412 8.03435 19.3412H6.26737C6.26618 19.3412 6.26499 19.3412 6.2638 19.3412H4.4867L5.27824 17.5605H7.58799C7.83349 17.5605 8.03435 17.3597 8.03435 17.1142C8.03435 16.8687 7.83349 16.6678 7.58799 16.6678H2.2317C2.22783 16.6678 2.22456 16.669 2.22069 16.669L1.7779 13.2746C1.71422 12.7854 1.26667 12.4396 0.777167 12.5048C0.288256 12.5685 -0.0563323 13.0166 0.00764571 13.5052L0.900362 20.3494C0.958388 20.7939 1.3372 21.1266 1.78564 21.1266H2.3906L0.595053 24.9998H1.89753L3.69307 21.1266H6.07335L7.65673 24.9998H8.93361L7.35053 21.1266ZM3.18423 19.3412H2.56974L2.33734 17.5605H3.97577L3.18423 19.3412Z" fill="#E4E4E4"/>
</svg>
