<svg width="56" height="55" viewBox="0 0 56 55" fill="none" xmlns="http://www.w3.org/2000/svg">
<circle cx="28.0865" cy="27.099" r="26.0924" stroke="#E5E5E5" stroke-width="2"/>
<path d="M41.9676 41.3164L40.0198 37.1142H40.6762C41.1627 37.1142 41.5737 36.7533 41.6366 36.2709L42.6052 28.8453C42.6743 28.3149 42.3008 27.829 41.7703 27.7599C41.2389 27.6895 40.7536 28.0644 40.6846 28.5951L40.2042 32.2779C40.2 32.2779 40.1964 32.2766 40.1922 32.2766H34.3809C34.1145 32.2766 33.8966 32.4945 33.8966 32.7609C33.8966 33.0272 34.1145 33.2452 34.3809 33.2452H36.8872L37.746 35.1771H33.8963C33.3613 35.1771 32.9277 35.6107 32.9277 36.1457C32.9277 36.6806 33.3613 37.1142 33.8963 37.1142H34.6385L32.9277 41.3164H34.3131L36.0239 37.1142H38.6064L40.5544 41.3164H41.9676ZM39.1588 35.1771L38.3 33.2452H40.0776L39.8254 35.1771H39.1588Z" fill="#E5E5E5"/>
<path d="M42.481 22.4179C40.3431 18.7894 35.1371 16.3822 29.0553 16.1498V15.1612C29.0553 14.6262 28.6217 14.1926 28.0867 14.1926C27.5518 14.1926 27.1182 14.6262 27.1182 15.1612V16.1498C21.0363 16.3822 15.8306 18.7894 13.6927 22.4179C13.5161 22.7172 13.5139 23.0882 13.6863 23.39C13.8587 23.6919 14.1796 23.8782 14.527 23.8782H27.1182V29.3657H21.3068C20.7719 29.3657 20.3383 29.7993 20.3383 30.3342C20.3383 30.8692 20.7719 31.3028 21.3068 31.3028H27.1182V41.3163H29.0553V31.3028H34.8666C35.4016 31.3028 35.8351 30.8692 35.8351 30.3342C35.8351 29.7993 35.4016 29.3657 34.8666 29.3657H29.0553V23.8782H41.6465C41.9942 23.8782 42.3148 23.6919 42.4872 23.39C42.6596 23.0882 42.6576 22.7172 42.481 22.4179Z" fill="#E5E5E5"/>
<path d="M21.5336 37.114H22.2755C22.8104 37.114 23.244 36.6804 23.244 36.1455C23.244 35.6105 22.8104 35.1769 22.2755 35.1769H20.3584C20.3571 35.1769 20.3558 35.1769 20.3545 35.1769H18.4264L19.2852 33.245H21.7912C22.0576 33.245 22.2755 33.0271 22.2755 32.7607C22.2755 32.4943 22.0576 32.2764 21.7912 32.2764H15.9799C15.9757 32.2764 15.9721 32.2777 15.9679 32.2777L15.4875 28.595C15.4184 28.0642 14.9329 27.689 14.4018 27.7597C13.8713 27.8288 13.4975 28.315 13.5669 28.8452L14.5354 36.2707C14.5984 36.7531 15.0094 37.114 15.4959 37.114H16.1523L14.2042 41.3163H15.6173L17.5654 37.114H20.1479L21.8658 41.3163H23.2511L21.5336 37.114ZM17.0133 35.1769H16.3466L16.0945 33.245H17.8721L17.0133 35.1769Z" fill="#E5E5E5"/>
</svg>
