<svg width="56" height="55" viewBox="0 0 56 55" fill="none" xmlns="http://www.w3.org/2000/svg">
<circle cx="27.94" cy="27.3731" r="26.0924" stroke="#FFA000" stroke-width="2"/>
<path fill-rule="evenodd" clip-rule="evenodd" d="M26.8571 11.9093C18.9178 12.311 12.5706 18.6768 12.1934 26.6226H14.3024C14.4077 26.6209 14.5123 26.6402 14.6101 26.6794C14.7078 26.7185 14.7969 26.7768 14.8719 26.8506C14.947 26.9245 15.0066 27.0126 15.0473 27.1098C15.088 27.2069 15.109 27.3112 15.109 27.4165C15.109 27.5219 15.088 27.6261 15.0473 27.7233C15.0066 27.8205 14.947 27.9085 14.8719 27.9824C14.7969 28.0563 14.7078 28.1145 14.6101 28.1537C14.5123 28.1928 14.4077 28.2122 14.3024 28.2105H12.1934C12.6123 36.116 18.9465 42.4367 26.8571 42.837V40.728C26.8554 40.6237 26.8743 40.5202 26.9127 40.4232C26.9511 40.3263 27.0083 40.2378 27.0808 40.163C27.1534 40.0881 27.24 40.0282 27.3357 39.9868C27.4314 39.9454 27.5344 39.9232 27.6386 39.9216C27.745 39.92 27.8506 39.9397 27.9492 39.9796C28.0477 40.0196 28.1373 40.0789 28.2125 40.1541C28.2877 40.2293 28.3471 40.3189 28.387 40.4175C28.4269 40.5161 28.4467 40.6216 28.445 40.728V42.837C36.3589 42.4368 42.7024 36.1162 43.1211 28.2105H40.9997C40.8944 28.2122 40.7898 28.1928 40.692 28.1537C40.5942 28.1145 40.5052 28.0563 40.4301 27.9824C40.3551 27.9085 40.2954 27.8205 40.2547 27.7233C40.214 27.6261 40.1931 27.5219 40.1931 27.4165C40.1931 27.3112 40.214 27.2069 40.2547 27.1098C40.2954 27.0126 40.3551 26.9245 40.4301 26.8506C40.5052 26.7768 40.5942 26.7185 40.692 26.6794C40.7898 26.6402 40.8944 26.6209 40.9997 26.6226H43.1211C42.7441 18.6766 36.3877 12.3109 28.445 11.9093V14.0182C28.4465 14.1235 28.427 14.2279 28.3878 14.3256C28.3486 14.4232 28.2903 14.512 28.2165 14.587C28.1426 14.6619 28.0546 14.7214 27.9575 14.762C27.8604 14.8026 27.7562 14.8235 27.651 14.8235C27.5458 14.8235 27.4416 14.8026 27.3446 14.762C27.2475 14.7214 27.1595 14.6619 27.0856 14.587C27.0117 14.512 26.9535 14.4232 26.9142 14.3256C26.875 14.2279 26.8556 14.1235 26.8571 14.0182V11.9093ZM27.5642 18.1122C27.589 18.111 27.6138 18.111 27.6386 18.1122C27.745 18.1105 27.8506 18.1302 27.9492 18.1702C28.0478 18.2101 28.1373 18.2694 28.2125 18.3447C28.2877 18.4199 28.3471 18.5094 28.387 18.608C28.4269 18.7066 28.4467 18.8122 28.445 18.9186V25.5805C29.137 25.8881 29.6236 26.5824 29.6236 27.3793C29.6236 28.4467 28.7416 29.3258 27.6758 29.3394L23.6812 37.0683C23.5841 37.2558 23.4165 37.3971 23.2153 37.4611C23.014 37.5251 22.7956 37.5065 22.608 37.4094C22.4205 37.3124 22.2792 37.1448 22.2152 36.9435C22.1512 36.7423 22.1698 36.5239 22.2669 36.3363L26.2244 28.7067C25.8934 28.3542 25.6909 27.8947 25.6909 27.3793C25.6909 26.5884 26.1745 25.904 26.8571 25.5929V18.9186C26.8528 18.7201 26.923 18.5272 27.0539 18.3779C27.1848 18.2287 27.3668 18.1339 27.5642 18.1122V18.1122Z" fill="#FFA000"/>
<path fill-rule="evenodd" clip-rule="evenodd" d="M27.6519 26.9962C27.8739 26.9962 28.0369 27.1625 28.0369 27.3813C28.0369 27.5999 27.8772 27.7538 27.6519 27.7538C27.4332 27.7538 27.2793 27.5999 27.2793 27.3813C27.2793 27.1625 27.4365 26.9962 27.6519 26.9962Z" fill="#FFA000"/>
</svg>
