<svg width="22" height="22" viewBox="0 0 22 22" fill="none" xmlns="http://www.w3.org/2000/svg">
<path d="M10.9375 0C4.89746 0 0 4.89746 0 10.9375C0 16.9775 4.89746 21.875 10.9375 21.875C16.9775 21.875 21.875 16.9775 21.875 10.9375C21.875 4.89746 16.9775 0 10.9375 0ZM15.2466 14.2993L14.5483 15.2515C14.5332 15.2722 14.514 15.2897 14.492 15.303C14.4701 15.3164 14.4457 15.3252 14.4202 15.3291C14.3948 15.3329 14.3689 15.3317 14.344 15.3255C14.319 15.3193 14.2956 15.3083 14.2749 15.293L10.2368 12.3486C10.2117 12.3306 10.1912 12.3067 10.1772 12.2791C10.1632 12.2515 10.156 12.2209 10.1562 12.1899V5.46875C10.1562 5.36133 10.2441 5.27344 10.3516 5.27344H11.5259C11.6333 5.27344 11.7212 5.36133 11.7212 5.46875V11.5112L15.2026 14.0283C15.2905 14.0894 15.3101 14.2114 15.2466 14.2993Z" fill="#E4E4E4"/>
</svg>
