<svg width="56" height="55" viewBox="0 0 56 55" fill="none" xmlns="http://www.w3.org/2000/svg">
<circle cx="27.94" cy="27.099" r="26.0924" stroke="#E5E5E5" stroke-width="2"/>
<path fill-rule="evenodd" clip-rule="evenodd" d="M26.8571 11.6351C18.9178 12.0368 12.5706 18.4026 12.1934 26.3484H14.3024C14.4077 26.3468 14.5123 26.3661 14.6101 26.4052C14.7078 26.4444 14.7969 26.5026 14.8719 26.5765C14.947 26.6504 15.0066 26.7384 15.0473 26.8356C15.088 26.9328 15.109 27.037 15.109 27.1424C15.109 27.2477 15.088 27.352 15.0473 27.4491C15.0066 27.5463 14.947 27.6344 14.8719 27.7083C14.7969 27.7822 14.7078 27.8404 14.6101 27.8795C14.5123 27.9187 14.4077 27.938 14.3024 27.9363H12.1934C12.6123 35.8418 18.9465 42.1626 26.8571 42.5628V40.4538C26.8554 40.3496 26.8743 40.246 26.9127 40.1491C26.9511 40.0521 27.0083 39.9637 27.0808 39.8888C27.1534 39.8139 27.24 39.754 27.3357 39.7126C27.4314 39.6712 27.5344 39.6491 27.6386 39.6475C27.745 39.6458 27.8506 39.6655 27.9492 39.7055C28.0477 39.7454 28.1373 39.8047 28.2125 39.8799C28.2877 39.9551 28.3471 40.0447 28.387 40.1433C28.4269 40.2419 28.4467 40.3475 28.445 40.4538V42.5628C36.3589 42.1626 42.7024 35.842 43.1211 27.9363H40.9997C40.8944 27.938 40.7898 27.9187 40.692 27.8795C40.5942 27.8404 40.5052 27.7822 40.4301 27.7083C40.3551 27.6344 40.2954 27.5463 40.2547 27.4491C40.214 27.352 40.1931 27.2477 40.1931 27.1424C40.1931 27.037 40.214 26.9328 40.2547 26.8356C40.2954 26.7384 40.3551 26.6504 40.4301 26.5765C40.5052 26.5026 40.5942 26.4444 40.692 26.4052C40.7898 26.3661 40.8944 26.3468 40.9997 26.3484H43.1211C42.7441 18.4024 36.3877 12.0368 28.445 11.6351V13.7441C28.4465 13.8493 28.427 13.9538 28.3878 14.0514C28.3486 14.149 28.2903 14.2379 28.2165 14.3128C28.1426 14.3877 28.0546 14.4472 27.9575 14.4878C27.8604 14.5285 27.7562 14.5494 27.651 14.5494C27.5458 14.5494 27.4416 14.5285 27.3446 14.4878C27.2475 14.4472 27.1595 14.3877 27.0856 14.3128C27.0117 14.2379 26.9535 14.149 26.9142 14.0514C26.875 13.9538 26.8556 13.8493 26.8571 13.7441V11.6351ZM27.5642 17.838C27.589 17.8368 27.6138 17.8368 27.6386 17.838C27.745 17.8363 27.8506 17.856 27.9492 17.896C28.0478 17.9359 28.1373 17.9953 28.2125 18.0705C28.2877 18.1457 28.3471 18.2353 28.387 18.3338C28.4269 18.4324 28.4467 18.538 28.445 18.6444V25.3063C29.137 25.614 29.6236 26.3082 29.6236 27.1052C29.6236 28.1725 28.7416 29.0516 27.6758 29.0653L23.6812 36.7941C23.5841 36.9817 23.4165 37.123 23.2153 37.1869C23.014 37.2509 22.7956 37.2323 22.608 37.1353C22.4205 37.0382 22.2792 36.8706 22.2152 36.6694C22.1512 36.4681 22.1698 36.2497 22.2669 36.0622L26.2244 28.4326C25.8934 28.08 25.6909 27.6205 25.6909 27.1052C25.6909 26.3142 26.1745 25.6298 26.8571 25.3187V18.6444C26.8528 18.4459 26.923 18.253 27.0539 18.1038C27.1848 17.9545 27.3668 17.8597 27.5642 17.838V17.838Z" fill="#E5E5E5"/>
<path fill-rule="evenodd" clip-rule="evenodd" d="M27.6519 26.722C27.8739 26.722 28.0369 26.8884 28.0369 27.1071C28.0369 27.3258 27.8772 27.4797 27.6519 27.4797C27.4332 27.4797 27.2793 27.3258 27.2793 27.1071C27.2793 26.8884 27.4365 26.722 27.6519 26.722Z" fill="#E5E5E5"/>
</svg>
