<svg width="30" height="30" viewBox="0 0 30 30" fill="none" xmlns="http://www.w3.org/2000/svg">
<g clip-path="url(#clip0)">
<path d="M14.9959 30C12.6935 30 10.5277 29.5074 8.49838 28.522C6.46912 27.5366 4.75204 26.1756 3.34716 24.4391L6.30326 22.1269C7.35692 23.4147 8.63985 24.4244 10.152 25.1561C11.6642 25.8878 13.2789 26.2537 14.9959 26.2537C17.0252 26.2537 18.9033 25.7512 20.6301 24.7464C22.3569 23.7415 23.7228 22.3756 24.7277 20.6488C25.7325 18.922 26.235 17.0439 26.235 15.0146C26.235 12.9854 25.7325 11.1073 24.7277 9.38049C23.7228 7.65365 22.3569 6.2878 20.6301 5.28292C18.9033 4.27804 17.0252 3.7756 14.9959 3.7756C12.1862 3.7756 9.7179 4.71218 7.59107 6.58536L11.2789 10.2732C11.2984 10.9561 11.074 11.2878 10.6057 11.2683H0.947164C0.693506 11.2683 0.483749 11.1317 0.317896 10.8585C0.152042 10.5854 0.0593591 10.3024 0.0398469 10.0098L0.0105786 0.702419C-0.00893356 0.234125 0.322774 0.00973467 1.0057 0.0292469L4.92765 3.95121C6.29351 2.72193 7.83985 1.76096 9.56668 1.06827C11.2935 0.375589 13.1033 0.0292469 14.9959 0.0292469C17.0252 0.0292469 18.9667 0.429248 20.8203 1.22925C22.674 2.02925 24.2691 3.09755 25.6057 4.43413C26.9423 5.77072 28.0057 7.36097 28.7959 9.20488C29.5862 11.0488 29.9813 12.9854 29.9813 15.0146C29.9813 17.0439 29.5862 18.9854 28.7959 20.839C28.0057 22.6927 26.9423 24.2878 25.6057 25.6244C24.2691 26.961 22.674 28.0244 20.8203 28.8147C18.9667 29.6049 17.0252 30 14.9959 30V30Z" fill="black"/>
</g>
<defs>
<clipPath id="clip0">
<rect width="30" height="30" fill="white"/>
</clipPath>
</defs>
</svg>
