<svg width="13" height="15" viewBox="0 0 13 15" fill="none" xmlns="http://www.w3.org/2000/svg">
<mask id="path-1-inside-1" fill="white">
<path fill-rule="evenodd" clip-rule="evenodd" d="M10.1556 6.20395H10.8166C12.0204 6.20395 13 7.18425 13 8.38876V9.71082C13 10.9146 12.0204 11.8949 10.8166 11.8949H10.1556C10.0192 11.8949 9.88714 11.8804 9.75798 11.8564V13.6806C9.75798 14.338 9.22321 14.8721 8.56653 14.8721H1.88513C1.22846 14.8721 0.694407 14.3373 0.694407 13.6806V4.74911C0.694407 4.69031 0.702591 4.63403 0.710749 4.57792C0.71135 4.57379 0.71195 4.56966 0.712548 4.56553C0.282987 4.26658 0 3.77099 0 3.20864C0 2.40322 0.580487 1.72913 1.346 1.584C1.60359 0.940389 2.26027 0.478902 3.03957 0.400536V0.397633H3.07513C3.20501 0.386749 3.33707 0.386024 3.47421 0.396908C3.56782 0.398359 3.65924 0.406341 3.75067 0.420853L3.86967 0.444072C3.964 0.465841 4.05688 0.495591 4.14758 0.532597C4.48861 0.194463 4.95155 0 5.44134 0C6.04432 0 6.60957 0.304756 6.94915 0.796718C7.48102 0.769871 7.99838 0.985376 8.36119 1.36705C9.45758 1.15009 10.4531 2.01719 10.4531 3.09835C10.4531 3.67883 10.1687 4.19039 9.73404 4.51183C9.74855 4.58875 9.75798 4.66784 9.75798 4.74911V6.24168C9.88714 6.21774 10.0192 6.20395 10.1556 6.20395ZM8.56653 14.0775C8.78639 14.0775 8.96344 13.8998 8.96344 13.6806V4.74911C8.96344 4.52997 8.78639 4.3522 8.56653 4.3522H1.88513C1.666 4.3522 1.48822 4.52997 1.48822 4.74911V13.6806C1.48822 13.8998 1.666 14.0775 1.88513 14.0775H8.56653ZM8.56653 3.55766C8.85242 3.55766 9.11219 3.66287 9.31681 3.83121C9.52434 3.65344 9.6593 3.39222 9.6593 3.09835C9.6593 2.56285 9.22321 2.12748 8.68843 2.12748C8.58032 2.12748 8.47075 2.14853 8.35393 2.19134L8.06369 2.298L7.89027 2.04259C7.65517 1.69938 7.23214 1.52595 6.81782 1.6094L6.51306 1.6718L6.37955 1.39099C6.20395 1.02238 5.8455 0.793816 5.44206 0.793816C5.09522 0.793816 4.77233 0.96651 4.57786 1.25458L4.358 1.58038L4.03003 1.36342C3.8791 1.26401 3.70786 1.20596 3.53009 1.19363H3.09254C2.49972 1.26256 2.11297 1.65656 2.03896 2.02953L1.97583 2.34807L1.65076 2.34952C1.17766 2.35097 0.793816 2.73627 0.793816 3.20864C0.793816 3.47059 0.913541 3.70278 1.0993 3.86024C1.30972 3.67448 1.58255 3.55766 1.88513 3.55766H8.56653ZM10.8166 10.7035C11.3645 10.7035 11.8093 10.2579 11.8093 9.71082V8.38876C11.8093 7.84093 11.3638 7.39613 10.8166 7.39613H10.1556C10.0141 7.39613 9.87988 7.4266 9.75798 7.4803V10.6193C9.87988 10.673 10.0141 10.7035 10.1556 10.7035H10.8166ZM1.88477 5.80713H8.56762V13.6807H1.88477V5.80713Z"/>
</mask>
<path fill-rule="evenodd" clip-rule="evenodd" d="M10.1556 6.20395H10.8166C12.0204 6.20395 13 7.18425 13 8.38876V9.71082C13 10.9146 12.0204 11.8949 10.8166 11.8949H10.1556C10.0192 11.8949 9.88714 11.8804 9.75798 11.8564V13.6806C9.75798 14.338 9.22321 14.8721 8.56653 14.8721H1.88513C1.22846 14.8721 0.694407 14.3373 0.694407 13.6806V4.74911C0.694407 4.69031 0.702591 4.63403 0.710749 4.57792C0.71135 4.57379 0.71195 4.56966 0.712548 4.56553C0.282987 4.26658 0 3.77099 0 3.20864C0 2.40322 0.580487 1.72913 1.346 1.584C1.60359 0.940389 2.26027 0.478902 3.03957 0.400536V0.397633H3.07513C3.20501 0.386749 3.33707 0.386024 3.47421 0.396908C3.56782 0.398359 3.65924 0.406341 3.75067 0.420853L3.86967 0.444072C3.964 0.465841 4.05688 0.495591 4.14758 0.532597C4.48861 0.194463 4.95155 0 5.44134 0C6.04432 0 6.60957 0.304756 6.94915 0.796718C7.48102 0.769871 7.99838 0.985376 8.36119 1.36705C9.45758 1.15009 10.4531 2.01719 10.4531 3.09835C10.4531 3.67883 10.1687 4.19039 9.73404 4.51183C9.74855 4.58875 9.75798 4.66784 9.75798 4.74911V6.24168C9.88714 6.21774 10.0192 6.20395 10.1556 6.20395ZM8.56653 14.0775C8.78639 14.0775 8.96344 13.8998 8.96344 13.6806V4.74911C8.96344 4.52997 8.78639 4.3522 8.56653 4.3522H1.88513C1.666 4.3522 1.48822 4.52997 1.48822 4.74911V13.6806C1.48822 13.8998 1.666 14.0775 1.88513 14.0775H8.56653ZM8.56653 3.55766C8.85242 3.55766 9.11219 3.66287 9.31681 3.83121C9.52434 3.65344 9.6593 3.39222 9.6593 3.09835C9.6593 2.56285 9.22321 2.12748 8.68843 2.12748C8.58032 2.12748 8.47075 2.14853 8.35393 2.19134L8.06369 2.298L7.89027 2.04259C7.65517 1.69938 7.23214 1.52595 6.81782 1.6094L6.51306 1.6718L6.37955 1.39099C6.20395 1.02238 5.8455 0.793816 5.44206 0.793816C5.09522 0.793816 4.77233 0.96651 4.57786 1.25458L4.358 1.58038L4.03003 1.36342C3.8791 1.26401 3.70786 1.20596 3.53009 1.19363H3.09254C2.49972 1.26256 2.11297 1.65656 2.03896 2.02953L1.97583 2.34807L1.65076 2.34952C1.17766 2.35097 0.793816 2.73627 0.793816 3.20864C0.793816 3.47059 0.913541 3.70278 1.0993 3.86024C1.30972 3.67448 1.58255 3.55766 1.88513 3.55766H8.56653ZM10.8166 10.7035C11.3645 10.7035 11.8093 10.2579 11.8093 9.71082V8.38876C11.8093 7.84093 11.3638 7.39613 10.8166 7.39613H10.1556C10.0141 7.39613 9.87988 7.4266 9.75798 7.4803V10.6193C9.87988 10.673 10.0141 10.7035 10.1556 10.7035H10.8166ZM1.88477 5.80713H8.56762V13.6807H1.88477V5.80713Z" fill="#D7D4D4"/>
<path d="M9.75798 11.8564L9.94027 10.8732L8.75798 10.654V11.8564H9.75798ZM0.710749 4.57792L-0.278843 4.43402L-0.278845 4.43403L0.710749 4.57792ZM0.712548 4.56553L1.70226 4.70861L1.79061 4.09747L1.28377 3.74474L0.712548 4.56553ZM1.346 1.584L1.53226 2.5665L2.07076 2.46442L2.27441 1.95557L1.346 1.584ZM3.03957 0.400536L3.13963 1.39552L4.03957 1.30502V0.400536H3.03957ZM3.03957 0.397633V-0.602367H2.03957V0.397633H3.03957ZM3.07513 0.397633V1.39763H3.11695L3.15863 1.39414L3.07513 0.397633ZM3.47421 0.396908L3.3951 1.39377L3.42686 1.39629L3.45871 1.39679L3.47421 0.396908ZM3.75067 0.420853L3.94218 -0.560638L3.92486 -0.564017L3.90744 -0.566783L3.75067 0.420853ZM3.86967 0.444072L4.09453 -0.530319L4.07792 -0.534153L4.06118 -0.537418L3.86967 0.444072ZM4.14758 0.532597L3.76981 1.4585L4.38208 1.7083L4.85166 1.24272L4.14758 0.532597ZM6.94915 0.796718L6.12617 1.36479L6.44284 1.82355L6.99956 1.79545L6.94915 0.796718ZM8.36119 1.36705L7.63639 2.05601L8.01551 2.45484L8.5553 2.34802L8.36119 1.36705ZM9.73404 4.51183L9.13942 3.70782L8.63507 4.08082L8.75137 4.69724L9.73404 4.51183ZM9.75798 6.24168H8.75798V7.44412L9.94027 7.22493L9.75798 6.24168ZM9.31681 3.83121L8.68149 4.60346L9.32981 5.13683L9.96739 4.59066L9.31681 3.83121ZM8.35393 2.19134L8.00985 1.2524L8.00899 1.25271L8.35393 2.19134ZM8.06369 2.298L7.23637 2.85973L7.67526 3.50614L8.40863 3.23663L8.06369 2.298ZM7.89027 2.04259L8.71759 1.48085L8.71527 1.47747L7.89027 2.04259ZM6.81782 1.6094L6.62038 0.629079L6.61722 0.629726L6.81782 1.6094ZM6.51306 1.6718L5.60994 2.10119L5.94628 2.8086L6.71366 2.65148L6.51306 1.6718ZM6.37955 1.39099L7.28267 0.961601L7.28234 0.96092L6.37955 1.39099ZM4.57786 1.25458L3.74904 0.695069L3.74895 0.695199L4.57786 1.25458ZM4.358 1.58038L3.80629 2.41441L4.63267 2.96106L5.18692 2.13975L4.358 1.58038ZM4.03003 1.36342L4.58175 0.529384L4.58009 0.528292L4.03003 1.36342ZM3.53009 1.19363L3.59931 0.196025L3.56474 0.193626H3.53009V1.19363ZM3.09254 1.19363V0.193626H3.0346L2.97704 0.200319L3.09254 1.19363ZM2.03896 2.02953L1.05809 1.83488L1.05804 1.83513L2.03896 2.02953ZM1.97583 2.34807L1.9803 3.34806L2.79783 3.34441L2.95675 2.54247L1.97583 2.34807ZM1.65076 2.34952L1.65383 3.34952L1.65522 3.34951L1.65076 2.34952ZM1.0993 3.86024L0.452687 4.62306L1.11257 5.18241L1.76109 4.60992L1.0993 3.86024ZM9.75798 7.4803L9.35488 6.56514L8.75798 6.82806V7.4803H9.75798ZM9.75798 10.6193H8.75798V11.2715L9.35487 11.5344L9.75798 10.6193ZM8.56762 5.80713H9.56762V4.80713H8.56762V5.80713ZM1.88477 5.80713V4.80713H0.884766V5.80713H1.88477ZM8.56762 13.6807V14.6807H9.56762V13.6807H8.56762ZM1.88477 13.6807H0.884766V14.6807H1.88477V13.6807ZM10.8166 5.20395H10.1556V7.20395H10.8166V5.20395ZM14 8.38876C14 6.63261 12.5734 5.20395 10.8166 5.20395V7.20395C11.4675 7.20395 12 7.73589 12 8.38876H14ZM14 9.71082V8.38876H12V9.71082H14ZM10.8166 12.8949C12.5731 12.8949 14 11.4665 14 9.71082H12C12 10.3628 11.4677 10.8949 10.8166 10.8949V12.8949ZM10.1556 12.8949H10.8166V10.8949H10.1556V12.8949ZM9.5757 12.8397C9.75397 12.8727 9.94779 12.8949 10.1556 12.8949V10.8949C10.0906 10.8949 10.0203 10.888 9.94027 10.8732L9.5757 12.8397ZM10.758 13.6806V11.8564H8.75798V13.6806H10.758ZM8.56653 15.8721C9.7751 15.8721 10.758 14.8907 10.758 13.6806H8.75798C8.75798 13.7853 8.67132 13.8721 8.56653 13.8721V15.8721ZM1.88513 15.8721H8.56653V13.8721H1.88513V15.8721ZM-0.305593 13.6806C-0.305593 14.8888 0.675377 15.8721 1.88513 15.8721V13.8721C1.78153 13.8721 1.69441 13.7858 1.69441 13.6806H-0.305593ZM-0.305593 4.74911V13.6806H1.69441V4.74911H-0.305593ZM-0.278845 4.43403C-0.285512 4.47989 -0.305593 4.60656 -0.305593 4.74911H1.69441C1.69441 4.7657 1.69326 4.77433 1.69376 4.7697C1.694 4.76743 1.69453 4.76294 1.69564 4.75475C1.69683 4.74604 1.69819 4.7366 1.70034 4.72181L-0.278845 4.43403ZM-0.277164 4.42245C-0.277692 4.4261 -0.278234 4.42983 -0.278843 4.43402L1.70034 4.72182C1.70093 4.71775 1.70159 4.71321 1.70226 4.70861L-0.277164 4.42245ZM-1 3.20864C-1 4.1157 -0.542226 4.91061 0.141321 5.38632L1.28377 3.74474C1.1082 3.62255 1 3.42627 1 3.20864H-1ZM1.15975 0.601502C-0.0679173 0.834235 -1 1.91274 -1 3.20864H1C1 2.89369 1.22889 2.62402 1.53226 2.5665L1.15975 0.601502ZM2.93952 -0.594446C1.84455 -0.484338 0.833033 0.174432 0.417599 1.21243L2.27441 1.95557C2.37416 1.70634 2.67599 1.44214 3.13963 1.39552L2.93952 -0.594446ZM2.03957 0.397633V0.400536H4.03957V0.397633H2.03957ZM3.07513 -0.602367H3.03957V1.39763H3.07513V-0.602367ZM3.55333 -0.599958C3.36136 -0.615193 3.17491 -0.614233 2.99162 -0.598874L3.15863 1.39414C3.23512 1.38773 3.31279 1.38724 3.3951 1.39377L3.55333 -0.599958ZM3.90744 -0.566783C3.76941 -0.588691 3.63078 -0.600785 3.48971 -0.602972L3.45871 1.39679C3.50485 1.3975 3.54907 1.40137 3.5939 1.40849L3.90744 -0.566783ZM4.06118 -0.537418L3.94218 -0.560638L3.55916 1.40234L3.67816 1.42556L4.06118 -0.537418ZM4.52535 -0.393304C4.38717 -0.44968 4.24322 -0.496005 4.09453 -0.530319L3.64481 1.41846C3.68478 1.42769 3.72658 1.44086 3.76981 1.4585L4.52535 -0.393304ZM5.44134 -1C4.68515 -1 3.96992 -0.699467 3.4435 -0.177525L4.85166 1.24272C5.00731 1.08839 5.21795 1 5.44134 1V-1ZM7.77213 0.228645C7.25022 -0.527454 6.38056 -1 5.44134 -1V1C5.70808 1 5.96891 1.13696 6.12617 1.36479L7.77213 0.228645ZM9.08598 0.67808C8.52904 0.09218 7.73146 -0.244044 6.89874 -0.20201L6.99956 1.79545C7.23059 1.78379 7.46772 1.87857 7.63639 2.05601L9.08598 0.67808ZM11.4531 3.09835C11.4531 1.41204 9.90604 0.041956 8.16707 0.386068L8.5553 2.34802C9.00912 2.25822 9.45311 2.62234 9.45311 3.09835H11.4531ZM10.3287 5.31584C11.0018 4.81801 11.4531 4.0159 11.4531 3.09835H9.45311C9.45311 3.34177 9.33556 3.56277 9.13942 3.70782L10.3287 5.31584ZM10.758 4.74911C10.758 4.59074 10.7396 4.44785 10.7167 4.32643L8.75137 4.69724C8.75749 4.72965 8.75798 4.74494 8.75798 4.74911H10.758ZM10.758 6.24168V4.74911H8.75798V6.24168H10.758ZM10.1556 5.20395C9.95116 5.20395 9.7578 5.22468 9.57569 5.25844L9.94027 7.22493C10.0165 7.2108 10.0872 7.20395 10.1556 7.20395V5.20395ZM7.96344 13.6806C7.96344 13.3487 8.23292 13.0775 8.56653 13.0775V15.0775C9.33986 15.0775 9.96344 14.4509 9.96344 13.6806H7.96344ZM7.96344 4.74911V13.6806H9.96344V4.74911H7.96344ZM8.56653 5.3522C8.23292 5.3522 7.96344 5.08107 7.96344 4.74911H9.96344C9.96344 3.97888 9.33987 3.3522 8.56653 3.3522V5.3522ZM1.88513 5.3522H8.56653V3.3522H1.88513V5.3522ZM2.48822 4.74911C2.48822 5.08226 2.21828 5.3522 1.88513 5.3522V3.3522C1.11371 3.3522 0.488223 3.97769 0.488223 4.74911H2.48822ZM2.48822 13.6806V4.74911H0.488223V13.6806H2.48822ZM1.88513 13.0775C2.21828 13.0775 2.48822 13.3475 2.48822 13.6806H0.488223C0.488223 14.452 1.11371 15.0775 1.88513 15.0775V13.0775ZM8.56653 13.0775H1.88513V15.0775H8.56653V13.0775ZM9.95213 3.05897C9.58478 2.75674 9.10439 2.55766 8.56653 2.55766V4.55766C8.60045 4.55766 8.6396 4.569 8.68149 4.60346L9.95213 3.05897ZM8.6593 3.09835C8.6593 3.09497 8.65972 3.09068 8.66078 3.08608C8.66182 3.0816 8.6632 3.07798 8.66446 3.07537C8.66678 3.07054 8.6681 3.07017 8.66624 3.07177L9.96739 4.59066C10.3779 4.23896 10.6593 3.70807 10.6593 3.09835H8.6593ZM8.68843 3.12748C8.68534 3.12748 8.68039 3.12666 8.67563 3.12465C8.67155 3.12292 8.66904 3.12095 8.66748 3.11939C8.66592 3.11783 8.66392 3.11528 8.66215 3.11113C8.6601 3.10629 8.6593 3.10133 8.6593 3.09835H10.6593C10.6593 2.01008 9.77501 1.12748 8.68843 1.12748V3.12748ZM8.69801 3.13028C8.71121 3.12544 8.71548 3.12495 8.71222 3.12557C8.70852 3.12628 8.70006 3.12748 8.68843 3.12748V1.12748C8.44564 1.12748 8.21939 1.17561 8.00985 1.2524L8.69801 3.13028ZM8.40863 3.23663L8.69887 3.12996L8.00899 1.25271L7.71874 1.35938L8.40863 3.23663ZM7.06295 2.60432L7.23637 2.85973L8.89101 1.73627L8.71758 1.48086L7.06295 2.60432ZM7.01525 2.58972C7.02516 2.58772 7.03534 2.5886 7.04537 2.59266C7.05566 2.59684 7.06187 2.60276 7.06526 2.60771L8.71527 1.47747C8.25313 0.802801 7.42734 0.466562 6.62038 0.629084L7.01525 2.58972ZM6.71366 2.65148L7.01842 2.58907L6.61722 0.629726L6.31246 0.692128L6.71366 2.65148ZM5.47643 1.82038L5.60994 2.10119L7.41618 1.24241L7.28267 0.961601L5.47643 1.82038ZM5.44206 1.79382C5.44816 1.79382 5.4518 1.79463 5.45368 1.79518C5.45566 1.79576 5.45729 1.79651 5.45888 1.79753C5.46111 1.79895 5.46878 1.80433 5.47675 1.82106L7.28234 0.96092C6.94374 0.250139 6.23775 -0.206184 5.44206 -0.206184V1.79382ZM5.40669 1.81409C5.41664 1.79934 5.43005 1.79382 5.44206 1.79382V-0.206184C4.76039 -0.206184 4.12801 0.133684 3.74904 0.695069L5.40669 1.81409ZM5.18692 2.13975L5.40678 1.81396L3.74895 0.695199L3.52909 1.021L5.18692 2.13975ZM3.47831 2.19745L3.80629 2.41441L4.90972 0.746343L4.58174 0.529386L3.47831 2.19745ZM3.46086 2.19123C3.4636 2.19142 3.46609 2.19192 3.46868 2.1928C3.47128 2.19368 3.47507 2.19532 3.47997 2.19854L4.58009 0.528292C4.28714 0.335339 3.95058 0.220399 3.59931 0.196025L3.46086 2.19123ZM3.09254 2.19363H3.53009V0.193626H3.09254V2.19363ZM3.01983 2.22417C3.01276 2.25982 3.00245 2.27642 3.00201 2.27713C3.00115 2.27851 3.006 2.27048 3.02057 2.25804C3.04811 2.23452 3.10666 2.19872 3.20804 2.18693L2.97704 0.200319C2.01784 0.311854 1.22866 0.975328 1.05809 1.83488L3.01983 2.22417ZM2.95675 2.54247L3.01988 2.22392L1.05804 1.83513L0.994909 2.15367L2.95675 2.54247ZM1.65522 3.34951L1.9803 3.34806L1.97137 1.34808L1.64629 1.34953L1.65522 3.34951ZM1.79382 3.20864C1.79382 3.2875 1.73168 3.34928 1.65383 3.34952L1.64769 1.34952C0.62365 1.35267 -0.206184 2.18504 -0.206184 3.20864H1.79382ZM1.74591 3.09742C1.75675 3.1066 1.76853 3.12034 1.77803 3.14007C1.78809 3.16098 1.79382 3.18526 1.79382 3.20864H-0.206184C-0.206184 3.78554 0.059397 4.28968 0.452687 4.62306L1.74591 3.09742ZM1.88513 2.55766C1.31706 2.55766 0.813649 2.77851 0.437504 3.11055L1.76109 4.60992C1.8058 4.57046 1.84805 4.55766 1.88513 4.55766V2.55766ZM8.56653 2.55766H1.88513V4.55766H8.56653V2.55766ZM10.8093 9.71082C10.8093 9.71129 10.8092 9.71081 10.8095 9.70971C10.8097 9.70867 10.81 9.70767 10.8104 9.70684C10.811 9.70533 10.8114 9.70507 10.8111 9.70537C10.8108 9.70567 10.8111 9.70522 10.8127 9.70455C10.8136 9.70418 10.8146 9.70385 10.8156 9.70364C10.8167 9.70341 10.8172 9.70345 10.8166 9.70345V11.7035C11.9172 11.7035 12.8093 10.8097 12.8093 9.71082H10.8093ZM10.8093 8.38876V9.71082H12.8093V8.38876H10.8093ZM10.8166 8.39613C10.8171 8.39613 10.8166 8.39616 10.8155 8.39593C10.8145 8.39572 10.8135 8.3954 10.8127 8.39505C10.8112 8.39441 10.8109 8.39399 10.8112 8.39429C10.8115 8.39459 10.811 8.39429 10.8104 8.39271C10.81 8.39185 10.8097 8.39083 10.8095 8.38978C10.8092 8.38867 10.8093 8.38822 10.8093 8.38876H12.8093C12.8093 7.28816 11.9156 6.39613 10.8166 6.39613V8.39613ZM10.1556 8.39613H10.8166V6.39613H10.1556V8.39613ZM10.1611 8.39545C10.1619 8.39508 10.1616 8.39531 10.1602 8.39562C10.1586 8.39596 10.1569 8.39613 10.1556 8.39613V6.39613C9.86879 6.39613 9.59769 6.45819 9.35488 6.56514L10.1611 8.39545ZM10.758 10.6193V7.4803H8.75798V10.6193H10.758ZM10.1556 9.70345C10.1569 9.70345 10.1586 9.70362 10.1602 9.70395C10.1616 9.70426 10.1619 9.7045 10.1611 9.70413L9.35487 11.5344C9.59768 11.6414 9.86879 11.7035 10.1556 11.7035V9.70345ZM10.8166 9.70345H10.1556V11.7035H10.8166V9.70345ZM8.56762 4.80713H1.88477V6.80713H8.56762V4.80713ZM9.56762 13.6807V5.80713H7.56762V13.6807H9.56762ZM1.88477 14.6807H8.56762V12.6807H1.88477V14.6807ZM0.884766 5.80713V13.6807H2.88477V5.80713H0.884766Z" fill="#D7D4D4" mask="url(#path-1-inside-1)"/>
</svg>
