<svg width="334" height="384" viewBox="0 0 334 384" fill="none" xmlns="http://www.w3.org/2000/svg">
<path d="M245.497 300.543C241.198 299.883 238.248 295.861 238.909 291.562C239.57 287.263 243.591 284.313 247.89 284.974C273.685 288.939 297.811 271.241 301.776 245.446L310.151 190.955C312.133 178.057 303.284 165.994 290.387 164.012L274.818 161.619C270.519 160.958 267.569 156.937 268.23 152.638C268.891 148.339 272.912 145.389 277.211 146.05L292.78 148.443C314.276 151.746 329.023 171.851 325.719 193.347L317.344 247.838C312.058 282.233 279.891 305.829 245.497 300.543Z" fill="#FFC107"/>
<path d="M258.173 166.233C258.363 162.666 256.127 159.418 252.728 158.32L90.2319 105.997C88.1699 105.342 85.9282 105.575 84.0455 106.64C82.1517 107.671 80.7633 109.434 80.2042 111.516L31.8614 290.736C30.7318 294.936 33.2209 299.257 37.4211 300.387C37.7159 300.466 38.0157 300.528 38.3173 300.573L240.713 331.68C245.008 332.363 249.044 329.433 249.726 325.137C249.77 324.865 249.799 324.59 249.813 324.314L258.173 166.233Z" fill="#FFC107"/>
<path d="M91.8188 275.672L91.305 275.593C87.0566 274.66 84.369 270.46 85.3021 266.211C85.3045 266.201 85.307 266.189 85.3094 266.178L111.041 150.608C112.073 146.414 116.22 143.774 120.457 144.613C124.703 145.555 127.381 149.761 126.44 154.008C126.44 154.009 126.439 154.01 126.439 154.011L100.708 269.581C99.8149 273.637 95.9246 276.303 91.8188 275.672Z" fill="#FAFAFA"/>
<path d="M146.309 284.047C142.01 283.386 139.06 279.365 139.721 275.066L158.864 150.515C159.525 146.215 163.546 143.266 167.845 143.926C172.144 144.587 175.094 148.608 174.433 152.908L155.29 277.459C154.63 281.758 150.608 284.708 146.309 284.047Z" fill="#FAFAFA"/>
<path d="M200.801 292.423C196.682 291.798 193.762 288.073 194.138 283.924L205.497 158.177C205.882 153.844 209.706 150.644 214.039 151.029C214.049 151.03 214.059 151.031 214.069 151.032C218.337 151.349 221.541 155.066 221.223 159.334C221.217 159.418 221.209 159.502 221.2 159.586L209.842 285.334C209.449 289.665 205.619 292.858 201.287 292.466L200.801 292.423Z" fill="#FAFAFA"/>
<path d="M260.585 96.4184C262.638 57.3945 232.667 24.0954 193.643 22.0426C163.747 20.4701 136.096 37.8834 124.597 65.5252C117.383 60.0403 108.914 56.4431 99.9572 55.0605C69.8674 50.4052 41.7005 71.0239 37.0452 101.114C32.3898 131.204 53.0085 159.37 83.0984 164.026C104.324 167.31 125.524 157.968 137.423 140.088C157.439 162.119 189.072 169.329 216.658 158.146C222.767 165.845 231.569 170.94 241.288 172.402C262.783 175.711 282.891 160.969 286.201 139.474C289.071 120.84 278.33 102.787 260.585 96.4184Z" fill="#FFE082"/>
<path d="M243.105 316.112L40.7093 285.005C23.5125 282.362 7.42857 294.16 4.78549 311.357C2.1424 328.554 13.9409 344.638 31.1377 347.281L233.533 378.388C250.73 381.031 266.814 369.233 269.457 352.036C272.1 334.839 260.301 318.755 243.105 316.112Z" fill="#FFA000"/>
<path d="M228.139 98.6844C225.518 92.2156 224.479 87.5674 225.506 80.4433C226.273 75.1192 229.814 69.5594 229.814 69.5594C226.683 70.7723 226.696 70.5709 224.565 71.6604C213.473 77.3322 209.306 84.5443 208.797 85.4834C208.762 85.5502 208.741 85.5885 208.741 85.5885L208.797 85.4834C208.797 85.4834 222.475 58.4403 205.034 40.573C203.587 39.0905 200.169 36.0263 200.169 36.0263C200.169 36.0263 204.797 63.098 183.401 73.8106C183.059 58.4535 164.257 54.1005 164.257 54.1005C164.257 54.1005 164.581 59.4964 164.548 60.7484C164.094 77.2551 153.626 80.1914 148.41 94.735C149.007 93.0655 148.769 93.7301 148.406 94.7441C148.405 94.7475 148.403 94.7512 148.402 94.755C148.403 94.7532 148.404 94.7519 148.404 94.75C148.403 94.7544 148.401 94.7585 148.4 94.7623C144.314 106.181 147.897 116.52 155.139 124.565C156.459 120.507 159.07 116.771 162.193 113.862C165.727 110.571 167.736 107.96 169.172 103.193C170.245 99.6297 169.651 95.1086 169.651 95.1086C171.257 96.7846 171.311 96.6553 172.328 97.9606C176.632 103.482 177.773 108.307 178.074 110.318C178.101 110.309 178.129 110.3 178.158 110.292C178.158 106.036 179.126 89.6674 193.657 84.1732C194.997 83.6676 198.035 82.7444 198.035 82.7444C198.035 82.7444 187.367 96.8671 200.362 113.137C201.166 107.834 204.228 103.452 208.78 100.562C211.253 98.9932 215.119 98.8325 215.119 98.8325C215.119 98.8325 213.338 102.123 212.994 102.917C208.455 113.403 215.764 123.957 211.501 133.898C210.702 135.761 209.756 137.531 208.623 139.163L209.501 139.358C214.717 137.901 219.763 135.62 223.712 131.832C232.697 123.214 232.543 109.554 228.139 98.6844Z" fill="white"/>
</svg>
