<svg width="334" height="438" viewBox="0 0 334 438" fill="none" xmlns="http://www.w3.org/2000/svg">
<path d="M245.497 300.543C241.198 299.883 238.248 295.861 238.909 291.562C239.57 287.263 243.591 284.313 247.89 284.974C273.685 288.939 297.811 271.241 301.776 245.446L310.151 190.955C312.133 178.057 303.284 165.994 290.387 164.012L274.818 161.619C270.519 160.958 267.569 156.937 268.23 152.638C268.891 148.339 272.912 145.389 277.211 146.05L292.78 148.443C314.276 151.746 329.023 171.851 325.719 193.347L317.344 247.838C312.058 282.233 279.891 305.829 245.497 300.543Z" fill="#FFC107"/>
<path d="M258.173 166.233C258.363 162.666 256.127 159.418 252.728 158.32L90.2319 105.997C88.1699 105.342 85.9282 105.575 84.0455 106.64C82.1517 107.671 80.7633 109.434 80.2042 111.516L31.8614 290.736C30.7318 294.936 33.2209 299.257 37.4211 300.387C37.7159 300.466 38.0157 300.528 38.3173 300.573L240.713 331.68C245.008 332.363 249.044 329.433 249.726 325.137C249.77 324.865 249.799 324.59 249.813 324.314L258.173 166.233Z" fill="#FFC107"/>
<path d="M91.8188 275.672L91.305 275.593C87.0566 274.66 84.369 270.46 85.3021 266.211C85.3045 266.201 85.307 266.189 85.3094 266.178L111.041 150.608C112.073 146.414 116.22 143.774 120.457 144.613C124.703 145.555 127.381 149.761 126.44 154.008C126.44 154.009 126.439 154.01 126.439 154.011L100.708 269.581C99.8149 273.637 95.9246 276.303 91.8188 275.672Z" fill="#FAFAFA"/>
<path d="M146.309 284.047C142.01 283.386 139.06 279.365 139.721 275.066L158.864 150.515C159.525 146.215 163.546 143.266 167.845 143.926C172.144 144.587 175.094 148.608 174.433 152.908L155.29 277.459C154.63 281.758 150.608 284.708 146.309 284.047Z" fill="#FAFAFA"/>
<path d="M200.801 292.423C196.682 291.798 193.762 288.073 194.138 283.924L205.497 158.177C205.882 153.844 209.706 150.644 214.039 151.029C214.049 151.03 214.059 151.031 214.069 151.032C218.337 151.349 221.541 155.066 221.223 159.334C221.217 159.418 221.209 159.502 221.2 159.586L209.842 285.334C209.449 289.665 205.619 292.858 201.287 292.466L200.801 292.423Z" fill="#FAFAFA"/>
<path d="M260.585 96.4184C262.638 57.3945 232.667 24.0954 193.643 22.0426C163.747 20.4701 136.096 37.8834 124.597 65.5252C117.383 60.0403 108.914 56.4431 99.9572 55.0605C69.8674 50.4052 41.7005 71.0239 37.0452 101.114C32.3898 131.204 53.0085 159.37 83.0984 164.026C104.324 167.31 125.524 157.968 137.423 140.088C157.439 162.119 189.072 169.329 216.658 158.146C222.767 165.845 231.569 170.94 241.288 172.402C262.783 175.711 282.891 160.969 286.201 139.474C289.071 120.84 278.33 102.787 260.585 96.4184Z" fill="#FFE082"/>
<path d="M243.105 316.112L40.7093 285.005C23.5125 282.362 7.42857 294.16 4.78549 311.357C2.1424 328.554 13.9409 344.638 31.1377 347.281L233.533 378.388C250.73 381.031 266.814 369.233 269.457 352.036C272.1 334.839 260.301 318.755 243.105 316.112Z" fill="#FFA000"/>
<path d="M228.139 98.6844C225.518 92.2156 224.479 87.5674 225.506 80.4433C226.273 75.1192 229.814 69.5594 229.814 69.5594C226.683 70.7723 226.696 70.5709 224.565 71.6604C213.473 77.3322 209.306 84.5443 208.797 85.4834C208.762 85.5502 208.741 85.5885 208.741 85.5885L208.797 85.4834C208.797 85.4834 222.475 58.4403 205.034 40.573C203.587 39.0905 200.169 36.0263 200.169 36.0263C200.169 36.0263 204.797 63.098 183.401 73.8106C183.059 58.4535 164.257 54.1005 164.257 54.1005C164.257 54.1005 164.581 59.4964 164.548 60.7484C164.094 77.2551 153.626 80.1914 148.41 94.735C149.007 93.0655 148.769 93.7301 148.406 94.7441C148.405 94.7475 148.403 94.7512 148.402 94.755C148.403 94.7532 148.404 94.7519 148.404 94.75C148.403 94.7544 148.401 94.7585 148.4 94.7623C144.314 106.181 147.897 116.52 155.139 124.565C156.459 120.507 159.07 116.771 162.193 113.862C165.727 110.571 167.736 107.96 169.172 103.193C170.245 99.6297 169.651 95.1086 169.651 95.1086C171.257 96.7846 171.311 96.6553 172.328 97.9606C176.632 103.482 177.773 108.307 178.074 110.318C178.101 110.309 178.129 110.3 178.158 110.292C178.158 106.036 179.126 89.6674 193.657 84.1732C194.997 83.6676 198.035 82.7444 198.035 82.7444C198.035 82.7444 187.367 96.8671 200.362 113.137C201.166 107.834 204.228 103.452 208.78 100.562C211.253 98.9932 215.119 98.8325 215.119 98.8325C215.119 98.8325 213.338 102.123 212.994 102.917C208.455 113.403 215.764 123.957 211.501 133.898C210.702 135.761 209.756 137.531 208.623 139.163L209.501 139.358C214.717 137.901 219.763 135.62 223.712 131.832C232.697 123.214 232.543 109.554 228.139 98.6844Z" fill="white"/>
<path d="M48.5913 377.603C53.1341 377.603 57.1184 378.274 60.5442 379.614C63.9699 380.88 66.6137 382.667 68.4755 384.976C70.4118 387.21 71.38 389.705 71.38 392.461C71.38 395.44 70.3373 397.897 68.2521 399.833C66.2413 401.77 63.4858 402.738 59.9856 402.738C56.4109 402.738 53.6182 401.844 51.6074 400.057C49.5966 398.195 48.5913 395.7 48.5913 392.572C48.5913 391.083 48.8147 389.519 49.2615 387.881C46.1337 388.7 43.3409 390.338 40.8833 392.796C38.5002 395.179 36.899 398.344 36.0798 402.291C35.633 404.525 35.4096 406.536 35.4096 408.323C35.4096 412.345 36.5267 415.398 38.7608 417.484C40.995 419.569 44.1974 420.611 48.3678 420.611C50.751 420.611 52.799 420.388 54.5119 419.941C56.2247 419.42 57.9749 418.75 59.7622 417.93C61.2517 417.186 62.3315 416.813 63.0018 416.813C63.4486 416.813 63.7465 416.925 63.8954 417.148C64.0444 417.297 64.1189 417.67 64.1189 418.265C64.1933 421.021 63.039 423.925 60.6559 426.979C58.3472 429.958 55.1076 432.49 50.9372 434.575C46.8412 436.586 42.2238 437.591 37.0852 437.591C31.7232 437.591 26.9569 436.623 22.7864 434.687C18.6904 432.676 15.4881 429.846 13.1794 426.197C10.9452 422.473 9.82812 418.154 9.82812 413.239C9.82812 410.93 10.126 408.361 10.7218 405.531C12.7326 396.296 17.1637 389.333 24.0152 384.641C30.9412 379.949 39.1332 377.603 48.5913 377.603Z" fill="#FFC107"/>
<path d="M102.825 429.548C102.751 429.697 102.714 429.92 102.714 430.218C102.714 430.479 102.769 430.684 102.881 430.833C103.03 430.982 103.216 431.056 103.44 431.056C103.887 431.056 104.259 430.87 104.557 430.498C104.892 430.088 105.115 429.883 105.227 429.883C105.413 429.883 105.562 430.014 105.674 430.274C105.786 430.498 105.841 430.777 105.841 431.112C105.879 432.192 105.525 433.253 104.78 434.296C104.035 435.301 102.937 436.139 101.485 436.809C100.07 437.442 98.3569 437.759 96.3461 437.759C93.8885 437.759 91.9336 437.2 90.4814 436.083C89.0292 434.929 88.2844 433.402 88.2472 431.503C88.2472 430.125 88.5823 428.58 89.2526 426.867L92.3246 418.824C92.5108 418.34 92.6039 417.949 92.6039 417.651C92.6039 417.167 92.4363 416.795 92.1012 416.534C91.8033 416.236 91.4309 416.087 90.9841 416.087C90.2766 416.087 89.5505 416.422 88.8057 417.093C88.0983 417.726 87.5211 418.768 87.0743 420.22V420.109L83.5554 431.447C83.4437 431.894 83.3878 432.285 83.3878 432.62C83.3878 433.104 83.4809 433.495 83.6671 433.793C83.8533 434.054 84.114 434.314 84.4491 434.575C84.7097 434.836 84.8959 435.059 85.0076 435.245C85.1193 435.394 85.138 435.599 85.0635 435.86C84.8773 436.344 84.5049 436.698 83.9464 436.921C83.3878 437.144 82.5314 437.256 81.3771 437.256H68.6422C67.6741 437.256 66.9666 437.107 66.5197 436.809C66.0729 436.474 65.924 436.046 66.0729 435.525C66.2218 435.078 66.6128 434.687 67.2459 434.352C67.8044 434.054 68.2699 433.7 68.6422 433.29C69.0146 432.881 69.3311 432.229 69.5917 431.335L78.0817 403.464C78.1934 403.129 78.2492 402.85 78.2492 402.626C78.2492 402.217 78.1375 401.881 77.9141 401.621C77.7279 401.36 77.4673 401.099 77.1321 400.839C76.7598 400.541 76.4805 400.28 76.2943 400.057C76.1454 399.833 76.1267 399.536 76.2384 399.163C76.4619 398.307 77.6348 397.562 79.7573 396.929C81.8798 396.296 84.0953 395.979 86.404 395.979C88.5637 395.979 90.1463 396.389 91.1516 397.208C92.1943 398.027 92.7156 399.145 92.7156 400.56C92.7156 401.379 92.5853 402.179 92.3246 402.961L89.3084 412.792C90.7607 410.893 92.2874 409.571 93.8885 408.826C95.5269 408.081 97.2957 407.709 99.1947 407.709C101.466 407.709 103.291 408.398 104.668 409.776C106.083 411.153 106.791 412.941 106.791 415.138C106.791 416.292 106.605 417.428 106.232 418.545L102.825 429.548Z" fill="#FFC107"/>
<path d="M127.176 407.43C131.905 407.43 135.331 408.193 137.453 409.72C139.575 411.209 140.637 413.127 140.637 415.473C140.637 416.18 140.562 416.832 140.413 417.428C139.855 419.885 138.291 421.654 135.721 422.734C133.189 423.776 130.192 424.298 126.729 424.298C124.979 424.298 123.34 424.186 121.814 423.963C121.776 425.899 122.298 427.258 123.378 428.04C124.457 428.822 125.966 429.213 127.902 429.213C128.796 429.213 129.652 429.12 130.471 428.934C131.29 428.71 132.333 428.394 133.599 427.984C134.642 427.612 135.349 427.426 135.721 427.426C136.131 427.426 136.336 427.668 136.336 428.152C136.373 429.455 135.889 430.833 134.884 432.285C133.878 433.7 132.389 434.91 130.415 435.916C128.442 436.921 126.059 437.424 123.266 437.424C119.133 437.424 115.744 436.381 113.1 434.296C110.457 432.211 109.135 429.176 109.135 425.191C109.135 424.074 109.284 422.771 109.582 421.282C110.512 416.702 112.542 413.257 115.67 410.949C118.835 408.603 122.67 407.43 127.176 407.43ZM122.205 420.611C122.354 420.649 122.558 420.667 122.819 420.667C124.383 420.667 125.575 419.941 126.394 418.489C127.213 417.037 127.604 415.417 127.567 413.63C127.529 412.587 127.232 412.066 126.673 412.066C126.263 412.066 125.779 412.401 125.221 413.071C124.662 413.704 124.104 414.672 123.545 415.975C123.024 417.279 122.577 418.824 122.205 420.611Z" fill="#FFC107"/>
<path d="M158.43 407.43C163.159 407.43 166.585 408.193 168.708 409.72C170.83 411.209 171.891 413.127 171.891 415.473C171.891 416.18 171.817 416.832 171.668 417.428C171.109 419.885 169.545 421.654 166.976 422.734C164.444 423.776 161.446 424.298 157.984 424.298C156.233 424.298 154.595 424.186 153.068 423.963C153.031 425.899 153.552 427.258 154.632 428.04C155.712 428.822 157.22 429.213 159.156 429.213C160.05 429.213 160.907 429.12 161.726 428.934C162.545 428.71 163.588 428.394 164.854 427.984C165.896 427.612 166.604 427.426 166.976 427.426C167.386 427.426 167.591 427.668 167.591 428.152C167.628 429.455 167.144 430.833 166.138 432.285C165.133 433.7 163.643 434.91 161.67 435.916C159.696 436.921 157.313 437.424 154.521 437.424C150.387 437.424 146.999 436.381 144.355 434.296C141.711 432.211 140.389 429.176 140.389 425.191C140.389 424.074 140.538 422.771 140.836 421.282C141.767 416.702 143.796 413.257 146.924 410.949C150.089 408.603 153.925 407.43 158.43 407.43ZM153.459 420.611C153.608 420.649 153.813 420.667 154.074 420.667C155.638 420.667 156.829 419.941 157.648 418.489C158.468 417.037 158.859 415.417 158.821 413.63C158.784 412.587 158.486 412.066 157.928 412.066C157.518 412.066 157.034 412.401 156.475 413.071C155.917 413.704 155.358 414.672 154.8 415.975C154.278 417.279 153.832 418.824 153.459 420.611Z" fill="#FFC107"/>
<path d="M198.175 407.709C200.26 407.709 201.917 408.342 203.146 409.608C204.412 410.874 205.045 412.438 205.045 414.3C205.045 415.007 204.971 415.659 204.822 416.255C204.449 417.781 203.742 418.954 202.699 419.774C201.656 420.593 200.409 421.002 198.957 421.002C197.542 421.002 196.462 420.667 195.717 419.997C195.01 419.327 194.377 418.433 193.818 417.316C193.52 416.683 193.241 416.217 192.98 415.92C192.72 415.622 192.422 415.473 192.087 415.473C191.714 415.473 191.379 415.622 191.081 415.92C190.821 416.217 190.579 416.739 190.355 417.484L186.054 431.447C185.98 431.633 185.943 431.913 185.943 432.285C185.943 432.769 186.073 433.179 186.334 433.514C186.632 433.812 187.023 434.11 187.507 434.407C187.953 434.705 188.251 434.947 188.4 435.134C188.549 435.32 188.605 435.562 188.568 435.86C188.493 436.344 188.214 436.698 187.73 436.921C187.283 437.144 186.501 437.256 185.384 437.256H171.085C170.117 437.256 169.428 437.107 169.019 436.809C168.572 436.474 168.404 436.046 168.516 435.525C168.665 435.078 169.056 434.687 169.689 434.352C170.248 434.054 170.713 433.7 171.085 433.29C171.458 432.881 171.774 432.229 172.035 431.335L177.006 415.193C177.08 415.007 177.118 414.747 177.118 414.411C177.118 414.002 177.025 413.685 176.838 413.462C176.689 413.239 176.429 412.959 176.056 412.624C175.684 412.326 175.423 412.066 175.274 411.842C175.125 411.619 175.107 411.321 175.219 410.949C175.442 410.092 176.615 409.347 178.737 408.714C180.86 408.044 183.075 407.709 185.384 407.709C186.911 407.709 188.177 408.063 189.182 408.77C190.188 409.44 190.839 410.409 191.137 411.675C192.925 409.031 195.27 407.709 198.175 407.709Z" fill="#FFC107"/>
<path d="M221.472 407.206C224.563 407.206 227.225 407.486 229.459 408.044C231.731 408.603 233.462 409.385 234.654 410.39C235.882 411.395 236.497 412.531 236.497 413.797C236.497 415.1 235.976 416.162 234.933 416.981C233.928 417.8 232.513 418.21 230.688 418.21C228.826 418.21 227.244 417.744 225.94 416.813C224.674 415.882 224.041 414.709 224.041 413.294C224.041 412.81 224.116 412.345 224.265 411.898C223.594 411.712 222.999 411.619 222.477 411.619C221.546 411.619 220.764 411.842 220.131 412.289C219.536 412.736 219.256 413.369 219.294 414.188C219.294 415.156 219.778 415.975 220.746 416.646C221.714 417.316 223.278 418.154 225.438 419.159C227.299 419.978 228.826 420.742 230.018 421.449C231.246 422.119 232.271 422.976 233.09 424.019C233.946 425.061 234.374 426.29 234.374 427.705C234.374 428.003 234.3 428.561 234.151 429.381C233.555 431.875 231.898 433.849 229.18 435.301C226.462 436.753 222.887 437.479 218.456 437.479C213.466 437.479 209.5 436.809 206.559 435.469C203.654 434.128 202.202 432.285 202.202 429.939C202.202 428.338 202.686 427.128 203.654 426.309C204.622 425.489 205.907 425.08 207.508 425.08C209.37 425.08 210.953 425.657 212.256 426.811C213.596 427.966 214.267 429.436 214.267 431.224C214.267 431.708 214.211 432.211 214.099 432.732C214.993 432.955 215.849 433.067 216.668 433.067C217.637 433.067 218.437 432.806 219.07 432.285C219.703 431.764 220.02 431.038 220.02 430.107C219.982 429.25 219.554 428.524 218.735 427.928C217.916 427.295 216.613 426.551 214.825 425.694C213.15 424.912 211.772 424.186 210.692 423.516C209.612 422.808 208.681 421.933 207.899 420.891C207.155 419.848 206.782 418.619 206.782 417.204C206.782 414.151 208.048 411.73 210.58 409.943C213.15 408.119 216.78 407.206 221.472 407.206Z" fill="#FFC107"/>
</svg>
